<?xml version="1.0" encoding="UTF-8"?>
<svg xmlns="http://www.w3.org/2000/svg" width=".37969in" height=".3797in" viewBox="0 0 27.33758 27.33844">
  <defs>
    <style>
      .cls-1 {
        fill: none;
        stroke: #000;
        stroke-miterlimit: 10;
        stroke-width: .1px;
      }

      .cls-2 {
        fill: #231f20;
      }
    </style>
  </defs>
  <g id="Edge.Cuts">
    <path class="cls-2" d="m18.76577,3.40674c.39606-.2287.90259-.09296,1.13129.30316.2287.39606.09296.90259-.3031,1.13129-.39618.2287-.90265.09296-1.13135-.3031-.2287-.39612-.09302-.90265.30316-1.13135Zm-5.58746-1.27075c0-.27094.2196-.49054.49048-.49054s.49048.2196.49048.49054v1.82568c0,.27094-.2196.49054-.49048.49054s-.49048-.2196-.49048-.49054v-1.82568ZM3.70931,7.4411c.39606-.2287.90259-.09296,1.13129.3031.2287.39618.09296.90265-.3031,1.13135-.39612.2287-.90265.09302-1.13135-.30316-.2287-.39606-.09296-.90259.30316-1.13129Zm-2.06445,6.22827c0-.27087.21967-.49048.49054-.49048h1.82568c.27094,0,.49054.2196.49054.49048,0,.27094-.2196.49054-.49054.49054h-1.82568c-.27087,0-.49054-.2196-.49054-.49054Zm2.47852,6.33923c-.4574,0-.82819-.37079-.82819-.82819s.37079-.82819.82819-.82819.82819.37079.82819.82819-.37079.82819-.82819.82819Zm4.44849,3.9234c-.39612.2287-.90265.09296-1.13135-.3031-.2287-.39612-.09296-.90265.30316-1.13135s.90259-.09296,1.13129.30316c.2287.39606.09302.90259-.3031,1.13129Zm-.41412-18.97986c-.4574,0-.82812-.37079-.82812-.82819s.37073-.82819.82812-.82819.82819.37079.82819.82819-.37079.82819-.82819.82819Zm6.00153,20.25061c0,.27094-.2196.49054-.49048.49054s-.49048-.2196-.49048-.49054v-1.82568c0-.27087.2196-.49048.49048-.49048s.49048.2196.49048.49048v1.82568Zm5.02057-1.15979c-.4574,0-.82819-.37079-.82819-.82819s.37079-.82819.82819-.82819.82819.37079.82819.82819-.37079.82819-.82819.82819Zm4.03436-16.71277c.4574,0,.82819.37073.82819.82812s-.37079.82819-.82819.82819-.82819-.37079-.82819-.82819.37079-.82812.82819-.82812Zm.41412,12.56744c-.39612.2287-.90265.09302-1.13135-.3031-.2287-.39618-.09296-.90265.30316-1.13135.39606-.2287.90259-.09302,1.13129.30316.2287.39612.09296.90259-.3031,1.13129Zm2.40204-5.07385h-3.09442v-2.41223h3.09442v2.41223Z"/>
  </g>
  <g id="F.SilkS">
    <path class="cls-2" d="m18.00222,18.07178c-.18298,0-.38733.17603-.52179.49548-.12994.31525-.08411.48969.09186.48969.19958,0,.38855-.17883.5249-.50281.12769-.30347.09485-.48236-.09497-.48236Zm-.02948.48816c-.10242.24341-.22687.39728-.35156.39728-.1109,0-.12366-.14075-.01947-.38837.10925-.25958.24426-.39581.35089-.39581.12616,0,.11884.1524.02014.3869Z"/>
    <path class="cls-2" d="m9.37341,18.14581c.11261.02219.14908.11151.17572.17674.00688.01683.01281.0314.01969.04357.03006-.01704.06008-.03404.09014-.05108-.00363-.00639-.00864-.01866-.01393-.03164-.02942-.07207-.08421-.20624-.25157-.23922-.2697-.05313-.51986.01556-.63737.17501-.06001.08142-.06318.22366-.0073.32375.05958.10668.17593.13896.26938.16492.02914.00808.05944.01319.08876.01813.04875.00818.09483.01595.12234.035.05701.03948.11201.11282.10629.18771-.00684.08904-.09243.16524-.16362.20341-.12079.06474-.2365.07027-.30565.07359-.00099.00007-.00198.00011-.003.00014-.10262.00501-.2576.01238-.34491-.08174-.04085-.04399-.06202-.10411-.07221-.13307-.01743-.04953-.0151-.10015-.01323-.14087.00053-.01125.00099-.02152.00102-.03059-.03454-.00018-.06904-.00039-.10358-.00056-.00004.0078-.00049.01665-.00092.02635-.00205.04442-.00515.11151.01901.18016.01249.03545.03849.10926.09398.16905.09313.1004.2292.11741.33895.11741.03171,0,.06121-.00141.08689-.00268.00099-.00004.00198-.00007.00296-.00014.07789-.0037.20821-.00998.3496-.08576.09878-.05295.20793-.15611.21798-.28677.00945-.12376-.07525-.22864-.15064-.28085-.04653-.03217-.10629-.04223-.16411-.05196-.0279-.00469-.05429-.00914-.07821-.01577-.08266-.02297-.16817-.04667-.20666-.11561-.03577-.0641-.03567-.16305.00025-.21184.0938-.12728.30336-.1802.53393-.1348h0Z"/>
    <path class="cls-2" d="m22.56763,12.04318v3.14899h3.83112v-3.14899h-3.83112Zm3.61959,2.93748h-3.4081v-2.72595h3.4081v2.72595Z"/>
    <path class="cls-2" d="m11.2611,26.51805c.03468.02353.08738.0478.14446.05987.08477.01785.13833-.00222.14404-.0448.00568-.04025-.02565-.06974-.10813-.10933-.10033-.04607-.15847-.09684-.14887-.15632.01069-.06611.09934-.09656.2207-.07161.06403.01302.10933.03228.13568.04844-.00945.01358-.01887.02716-.0284.04075-.01969-.01168-.06015-.03246-.11673-.04413-.08523-.01764-.12354.00903-.12792.03831-.00589.03976.0296.06738.11342.1083.10351.05024.15349.09419.14535.15745-.00861.0653-.08939.10908-.24151.07708-.06209-.01291-.12806-.03962-.15984-.06248.00921-.01383.01849-.02766.02773-.04152h.00004Z"/>
    <path class="cls-2" d="m11.83814,26.70033c-.03792-.15159-.07401-.30332-.10834-.45512.02847.00529.0569.01041.08534.01549.01573.07634.03189.15272.04854.22906.01291.05637.02342.11282.03041.15547.0006.00011.00127.00018.00187.00028.01549-.04053.04106-.08791.06893-.13928.03634-.06738.07236-.1349.10809-.20257.02822.0043.05641.0085.08467.01263.01792.07617.0363.15233.05503.2285.01305.05288.02533.10657.03101.15293.00064.00007.00123.00018.00187.00025.0175-.04516.04001-.09091.06456-.14139.0344-.06847.06844-.13709.1022-.20585.02759.00342.05521.00674.08287.00998-.07077.1361-.14277.27153-.21615.4064-.029-.00381-.058-.00776-.087-.01185-.02021-.07807-.03997-.15625-.05927-.23439-.01436-.05736-.02265-.10128-.02681-.14573-.0006-.00007-.0012-.00018-.0018-.00028-.01566.0412-.03418.08086-.06375.13212-.03806.0695-.07652.13882-.11529.20793-.02903-.00473-.05796-.0096-.087-.01457h0Z"/>
    <path class="cls-2" d="m12.65398,26.37803c-.01002.14309-.01972.28621-.02914.42944-.02776-.00286-.05553-.00582-.08326-.00885.01012-.14312.0206-.28618.0314-.42923.02702.00296.05401.00589.081.00864h0Z"/>
    <path class="cls-2" d="m12.76257,26.7529c.03605.01873.08978.03595.14697.04036.08488.00635.13557-.02067.1372-.06371.00183-.04064-.03133-.06572-.11596-.09409-.10266-.03281-.16436-.07525-.16062-.13557.00406-.06706.08802-.10929.20945-.10037.06459.00462.11056.01782.13765.03023-.00801.01475-.01605.02949-.02406.0442-.02032-.00917-.06156-.02441-.11825-.02836-.0859-.00639-.12065.02515-.12231.05486-.00183.04018.03563.06315.12136.0926.10636.03609.15949.07341.15734.13727-.00243.06611-.07754.11977-.22941.10844-.0622-.0048-.12933-.02251-.16305-.04124.00797-.01489.01588-.02974.02371-.04463h0Z"/>
    <path class="cls-2" d="m13.23138,26.78535c.03637.01718.09045.03221.14753.03429.0847.00307.13437-.02632.1348-.06929.00067-.04068-.03309-.06435-.11868-.08932-.10301-.02836-.16577-.06837-.16397-.12894.0024-.06717.08477-.11257.20602-.1088.06406.00191.11024.01312.13797.02455-.00751.01506-.01513.03013-.02265.04519-.02039-.00804-.06209-.02166-.11903-.02357-.08527-.00268-.11892.03002-.11977.0599-.00074.04015.03676.06152.12397.08763.10654.03161.16062.06671.16041.13067-.00032.06611-.07366.12316-.22532.11776-.06188-.0024-.12951-.01722-.16358-.03433.00748-.01528.01489-.03052.0223-.04576Z"/>
    <path class="cls-2" d="m14.44194,26.65899c-.00776-.0599-.01644-.13187-.01806-.18503-.00099.00004-.00187.00004-.00286.00007-.01909.05108-.04279.10619-.07193.16757-.03415.07137-.06876.14263-.10375.21364-.02081.00092-.04163.00173-.06248.0025-.03672-.06724-.07292-.13462-.10866-.20221-.03168-.06043-.05757-.11508-.07617-.16549-.00074,0-.00141,0-.00215.00004-.00049.05341-.00409.12559-.00843.19004-.00448.06163-.00903.12326-.01351.18489-.02628.00042-.05253.00074-.07874.00095.01277-.14372.02554-.28741.03814-.43113.03415-.00042.06819-.00106.10234-.0018.0369.06872.0743.13727.11222.20567.02745.05204.05108.09874.06847.14249.00085,0,.00173-.00004.00258-.00004.01503-.04382.03556-.09222.06188-.14743.03468-.07109.06893-.14231.10273-.21371.03404-.0018.06798-.00377.10192-.00593.02011.14249.04082.28487.06227.42725-.02685.00183-.05369.00353-.08061.00515-.0085-.06248-.01697-.12499-.02519-.1875h0Z"/>
    <path class="cls-2" d="m13.72477,5.92173c-.30815.00067-.53231.07761-.72461.23488-.07112.05814-.13885.12813-.18567.2062-.06001.10005-.0847.21689-.08943.33556-.00991.24963.08573.46119.23756.65137.02293.02872.05334.05345.02473.08971-.02925.03708-.06911.03122-.10456.0061-.02533-.01796-.04487-.04734-.07232-.05821-.0327-.01288-.07105-.01143-.10696-.01616-.0042.0327-.01817.06777-.01097.09776.03514.14609.19036.24423.33874.22126.04216-.00653.08516-.01136.12767-.01087.0817.00092.16348.01062.2449.00755.03447-.00127.07976-.01644.09945-.04152.03136-.04001-.00007-.08237-.03129-.11257-.02487-.02406-.06015-.03736-.08513-.06138-.05532-.05323-.11811-.10326-.15819-.16697-.10456-.16623-.16891-.35313-.18909-.54589-.01161-.11081.0066-.24208.05944-.33758.05486-.09917.13847-.1917.2497-.25418.24116-.1355.5624-.10291.75333.09507.05094.05281.10506.10911.13519.17424.11106.24049.06442.48698-.0327.71202-.06872.15917-.15854.32255-.31874.42337-.01545.00974-.03115.04463-.02501.0574.00981.02039.03722.04417.05824.04523.07363.0036.14767-.00233.22158-.00381.05369-.00109.10852-.00804.1609.00007.15942.02473.27898-.02886.36026-.17039.01958-.03408.04484-.07754.00191-.10329-.02766-.01658-.07415-.01358-.10813-.00434-.03189.00871-.05655.04092-.0877.05599-.04374.0212-.09183.01062-.1125-.02946-.01101-.02131.00374-.07426.02448-.09074.13279-.10552.16362-.26423.20959-.40982.03055-.0968.03256-.20772.0242-.31045-.01051-.12894-.07969-.24225-.14683-.35045-.03376-.05447-.08393-.10516-.13811-.13938-.2014-.12714-.4214-.19925-.60392-.19632h0Z"/>
    <path class="cls-2" d="m13.72477,5.92173c.18253-.00293.40252.06918.60392.19632.05422.03422.10435.08491.13815.13938.06713.1082.13631.22151.14679.35045.00836.10273.00639.21364-.0242.31045-.04597.14559-.0768.30431-.20955.40982-.02078.01647-.03552.06939-.02452.09074.02071.04008.06879.05066.1125.02946.03115-.0151.05581-.04727.0877-.05599.03397-.00924.08047-.01224.10813.00434.04293.02575.01767.06922-.00187.10329-.08132.14154-.20084.19512-.36029.17039-.05239-.00811-.10721-.00116-.1609-.00011-.07391.00152-.14796.00744-.22158.00385-.02103-.00106-.04844-.02484-.05824-.04523-.00614-.01277.00956-.04766.02505-.0574.16016-.10082.24998-.2642.3187-.42337.09712-.22507.14379-.47153.0327-.71202-.03009-.06512-.08424-.12146-.13519-.17427-.19092-.19798-.51217-.23054-.75333-.09504-.11123.06248-.19484.15501-.2497.25418-.05281.0955-.07105.22677-.05944.33758.02018.19276.08456.37966.18913.54589.04008.06371.10284.11374.15815.16697.02498.02402.06025.03732.08513.06138.03122.0302.06269.07257.03129.11254-.01969.02512-.06495.04029-.09945.04156-.08142.00307-.1632-.00663-.2449-.00755-.04251-.00049-.08551.00434-.12764.01087-.14841.02297-.30364-.07518-.33874-.22126-.00723-.02999.00674-.06505.01094-.09779.03591.00476.07426.00332.10696.01619.02745.01087.04699.04025.07232.05821.03545.02512.07532.03097.1046-.0061.02858-.03627-.00183-.061-.02477-.08971-.15184-.19018-.24744-.40175-.23753-.65137.00469-.11871.02942-.23552.08943-.33556.04681-.07807.11455-.1481.18563-.2062.19234-.15727.41649-.23421.72465-.23488h-.00004Z"/>
    <polygon class="cls-2" points="16.64015 18.20818 16.6374 18.20818 16.44319 18.29761 16.46094 18.19932 16.70464 18.08792 16.80719 18.08792 16.40611 19.04081 16.28973 19.04081 16.64015 18.20818"/>
    <path class="cls-2" d="m16.61471,19.04081c.01115-.02639.02226-.05278.03337-.07913.0459-.03228.09176-.06452.13765-.0968.32615-.2316.48391-.3562.54586-.49985.04068-.09677.03457-.18764-.09987-.18764-.08177,0-.16877.04547-.22581.08206-.00018-.0303-.00035-.06057-.00053-.09084.08587-.0557.19184-.0968.29577-.0968.19406,0,.2152.14076.15783.27707-.07405.176-.2545.31817-.52448.51164-.03411.02395-.06819.04787-.10231.07179-.00039.00099-.00081.00194-.0012.00289h.40337l-.04445.10562h-.57521Z"/>
    <path class="cls-2" d="m18.83395,19.04081h-.11977c.04794-.1124.09589-.22476.14383-.33715.0248-.0581.03376-.10008.02678-.12601-.00699-.02582-.03013-.03874-.0696-.03874-.03397,0-.0701.0163-.10848.04886-.03838.0326-.06766.0725-.08784.11963-.04738.11113-.09479.22229-.14221.33341h-.11924c.04914-.11522.09832-.2304.14746-.34562.04445-.10418.02847-.15628-.04794-.15628-.03535,0-.0714.01573-.10813.0472-.03672.03164-.06576.07236-.08717.12241-.04724.11077-.09447.22151-.14175.33228h-.11977c.08364-.19604.16732-.39208.25097-.58808h.11977c-.01316.03083-.02635.06167-.03955.09253h.00258c.07073-.07094.14499-.1064.22271-.1064.07923,0,.11603.03919.11049.11755.07553-.07835.15515-.11755.23869-.11755.12333,0,.1511.07959.08311.23876-.05165.12104-.10329.24211-.15494.36319h0Z"/>
    <path class="cls-2" d="m12.59136,2.62458c-.04791-.456-.09585-.91204-.14379-1.36805-.00469-.04463-.04865-.07013-.09035-.06576-.04166.00441-.07938.03845-.07468.08311.04791.456.09585.91201.14379,1.36801.00469.04466.04865.07013.09035.06576.04166-.00437.07938-.03845.07468-.08308Z"/>
    <path class="cls-2" d="m11.44278,2.79769c-.09536-.44849-.19068-.89698-.286-1.3455-.00935-.04392-.05574-.06466-.09673-.05595s-.07493.04653-.06562.09045c.09536.44852.19068.89701.286,1.3455.00935.04392.05574.06466.09673.05595s.07493-.04653.06562-.09045Z"/>
    <path class="cls-2" d="m10.31858,3.08993c-.14171-.43607-.28339-.87214-.4251-1.30825-.01386-.04269-.06216-.05846-.10202-.04551s-.06967.05412-.05581.0968c.14171.43607.28339.87214.4251,1.30825.01386.04269.06216.05846.10202.04551s.06967-.05412.05581-.0968Z"/>
    <path class="cls-2" d="m9.23106,3.49806c-.18648-.41886-.37299-.83775-.55947-1.2566-.01827-.04103-.06795-.05168-.10626-.03464-.03831.01707-.06364.0611-.04537.10213.18651.41889.37299.83775.55947,1.25664.01827.04103.06798.05165.10626.03461.03831-.01704.06364-.0611.04537-.10213Z"/>
    <path class="cls-2" d="m7.2133,4.64301c-.26949-.37095-.53901-.7419-.80854-1.11284-.02639-.03634-.07719-.03641-.11113-.01178-.0339.02462-.04953.07299-.02314.10933.26952.37095.53905.7419.80854,1.11284.02639.0363.07722.03641.11113.01175.0339-.02462.04953-.07299.02314-.10929Z"/>
    <path class="cls-2" d="m6.30514,5.36723c-.30678-.34075-.61359-.6815-.9204-1.02225-.03006-.03337-.08061-.02812-.11176-.00007s-.04163.07775-.01157.11113l.92044,1.02225c.03002.03334.08057.02812.11173.00007s.04163-.07775.01157-.11113Z"/>
    <path class="cls-2" d="m5.47769,6.18244l-1.02225-.92044c-.03337-.03006-.08308-.01958-.11113.01157s-.03327.0817.00007.11176c.34075.30681.6815.61363,1.02225.9204.03337.03006.08308.01958.11113-.01157s.03327-.0817-.00007-.11173Z"/>
    <path class="cls-2" d="m4.73996,7.07963c-.37095-.26949-.7419-.53901-1.11284-.80854-.03634-.02639-.0847-.01076-.10933.02314-.02462.03394-.02455.08474.01178.11113.37095.26952.7419.53905,1.11284.80854.0363.02639.08467.01076.10929-.02314.02466-.0339.02455-.08474-.01175-.11113Z"/>
    <path class="cls-2" d="m3.56499,9.08003c-.41889-.18648-.83775-.37296-1.25664-.55947-.04103-.01827-.08506.00706-.10213.04537-.01704.03831-.00639.08798.03464.10626.41886.18648.83775.37299,1.2566.55947.04103.01827.08509-.00706.10213-.04537.01704-.03828.00642-.08798-.03461-.10626Z"/>
    <path class="cls-2" d="m3.14063,10.16134c-.43611-.14171-.87218-.28339-1.30825-.4251-.04269-.01386-.08386.01595-.0968.05581s.00282.08816.04551.10202c.43611.14171.87218.28339,1.30825.4251.04269.01386.08386-.01595.0968-.05581s-.00282-.08816-.04551-.10202Z"/>
    <path class="cls-2" d="m2.8316,11.28103c-.44849-.09532-.89698-.19064-1.3455-.286-.04392-.00931-.08174.02462-.09045.06562s.01203.08738.05595.09673c.44852.09532.89701.19064,1.3455.286.04392.00931.08174-.02462.09045-.06562s-.01203-.08738-.05595-.09673Z"/>
    <path class="cls-2" d="m2.64131,12.42693c-.456-.04794-.91201-.09589-1.36801-.14379-.04466-.00469-.07871.03302-.08311.07468-.00437.0417.02113.08565.06576.09035.456.04794.91204.09589,1.36805.14379.04463.00469.07871-.03302.08308-.07468.00437-.0417-.0211-.08565-.06576-.09035Z"/>
    <path class="cls-2" d="m2.62399,14.74681c-.456.04791-.91204.09585-1.36805.14379-.04463.00469-.07013.04865-.06576.09035.00441.04166.03845.07938.08311.07468.456-.04791.91201-.09585,1.36801-.14379.04466-.00469.07013-.04865.06576-.09035-.00437-.04166-.03845-.07938-.08308-.07468Z"/>
    <path class="cls-2" d="m2.7971,15.89539c-.44849.09536-.89698.19068-1.3455.286-.04392.00935-.06466.05574-.05595.09673s.04653.07493.09045.06562c.44852-.09536.89701-.19068,1.3455-.286.04392-.00935.06466-.05574.05595-.09673s-.04653-.07493-.09045-.06562Z"/>
    <path class="cls-2" d="m3.08934,17.01959c-.43607.14171-.87214.28339-1.30825.4251-.04269.01386-.05846.06216-.04551.10202s.05412.06967.0968.05581c.43607-.14171.87214-.28339,1.30825-.4251.04269-.01386.05846-.06216.04551-.10202s-.05412-.06967-.0968-.05581Z"/>
    <path class="cls-2" d="m3.49747,18.10711c-.41886.18648-.83775.37299-1.2566.55947-.04103.01827-.05168.06795-.03464.10626.01707.03831.0611.06364.10213.04537.41889-.18651.83775-.37299,1.25664-.55947.04103-.01827.05165-.06798.03461-.10626-.01704-.03831-.0611-.06364-.10213-.04537Z"/>
    <path class="cls-2" d="m4.64242,20.12487c-.37095.26949-.7419.53901-1.11284.80854-.03634.02639-.03641.07719-.01178.11113.02462.0339.07299.04953.10933.02314.37095-.26952.7419-.53905,1.11284-.80854.0363-.02639.03641-.07722.01175-.11113-.02462-.0339-.07299-.04953-.10929-.02314Z"/>
    <path class="cls-2" d="m5.36664,21.03303c-.34075.30678-.6815.61359-1.02225.9204-.03337.03006-.02812.08061-.00007.11176s.07775.04163.11113.01157l1.02225-.92044c.03334-.03002.02812-.08057.00007-.11173s-.07775-.04163-.11113-.01157Z"/>
    <path class="cls-2" d="m6.18184,21.86047l-.92044,1.02225c-.03006.03337-.01958.08308.01157.11113s.0817.03327.11176-.00007c.30681-.34075.61363-.6815.9204-1.02225.03006-.03337.01958-.08308-.01157-.11113s-.0817-.03327-.11173.00007Z"/>
    <path class="cls-2" d="m7.07903,22.59821c-.26949.37095-.53901.7419-.80854,1.11284-.02639.03634-.01076.0847.02314.10933.03394.02462.08474.02455.11113-.01178.26952-.37095.53905-.7419.80854-1.11284.02639-.0363.01076-.08467-.02314-.10929-.0339-.02466-.08474-.02455-.11113.01175Z"/>
    <path class="cls-2" d="m9.07944,23.77318c-.18648.41889-.37296.83775-.55947,1.25664-.01827.04103.00706.08506.04537.10213.03831.01704.08798.00639.10626-.03464.18648-.41886.37299-.83775.55947-1.2566.01827-.04103-.00706-.08509-.04537-.10213-.03828-.01704-.08798-.00642-.10626.03461Z"/>
    <path class="cls-2" d="m10.16074,24.19754c-.14171.43611-.28339.87218-.4251,1.30825-.01386.04269.01595.08386.05581.0968s.08816-.00282.10202-.04551c.14171-.43611.28339-.87218.4251-1.30825.01386-.04269-.01595-.08386-.05581-.0968s-.08816.00282-.10202.04551Z"/>
    <path class="cls-2" d="m11.28043,24.50657c-.09532.44849-.19064.89698-.286,1.3455-.00931.04392.02462.08174.06562.09045s.08738-.01203.09673-.05595c.09532-.44852.19064-.89701.286-1.3455.00931-.04392-.02462-.08174-.06562-.09045s-.08738.01203-.09673.05595Z"/>
    <path class="cls-2" d="m12.42633,24.69686c-.04794.456-.09589.91201-.14379,1.36801-.00469.04466.03302.07871.07468.08311.0417.00437.08565-.02113.09035-.06576.04794-.456.09589-.91204.14379-1.36805.00469-.04463-.03302-.07871-.07468-.08308-.0417-.00437-.08565.0211-.09035.06576Z"/>
    <path class="cls-2" d="m14.74621,24.71418c.04791.456.09585.91204.14379,1.36805.00469.04463.04865.07013.09035.06576.04166-.00441.07938-.03845.07468-.08311-.04791-.456-.09585-.91201-.14379-1.36801-.00469-.04466-.04865-.07013-.09035-.06576-.04166.00437-.07938.03845-.07468.08308Z"/>
    <path class="cls-2" d="m15.89479,24.54107c.09536.44849.19068.89698.286,1.3455.00935.04392.05574.06466.09673.05595s.07493-.04653.06562-.09045c-.09536-.44852-.19068-.89701-.286-1.3455-.00935-.04392-.05574-.06466-.09673-.05595s-.07493.04653-.06562.09045Z"/>
    <path class="cls-2" d="m17.019,24.24883c.14171.43607.28339.87214.4251,1.30825.01386.04269.06216.05846.10202.04551s.06967-.05412.05581-.0968c-.14171-.43607-.28339-.87214-.4251-1.30825-.01386-.04269-.06216-.05846-.10202-.04551s-.06967.05412-.05581.0968Z"/>
    <path class="cls-2" d="m18.10651,23.8407c.18648.41886.37299.83775.55947,1.2566.01827.04103.06795.05168.10626.03464.03831-.01707.06364-.0611.04537-.10213-.18651-.41889-.37299-.83775-.55947-1.25664-.01827-.04103-.06798-.05165-.10626-.03461-.03831.01704-.06364.0611-.04537.10213Z"/>
    <path class="cls-2" d="m20.12427,22.69575c.26949.37095.53901.7419.80854,1.11284.02639.03634.07719.03641.11113.01178.0339-.02462.04953-.07299.02314-.10933-.26952-.37095-.53905-.7419-.80854-1.11284-.02639-.0363-.07722-.03641-.11113-.01175-.0339.02462-.04953.07299-.02314.10929Z"/>
    <path class="cls-2" d="m21.03244,21.97153c.30678.34075.61359.6815.9204,1.02225.03006.03337.08061.02812.11176.00007s.04163-.07775.01157-.11113l-.92044-1.02225c-.03002-.03334-.08057-.02812-.11173-.00007s-.04163.07775-.01157.11113Z"/>
    <path class="cls-2" d="m21.85988,21.15633l1.02225.92044c.03337.03006.08308.01958.11113-.01157s.03327-.0817-.00007-.11176c-.34075-.30681-.6815-.61363-1.02225-.9204-.03337-.03006-.08308-.01958-.11113.01157s-.03327.0817.00007.11173Z"/>
    <path class="cls-2" d="m22.59761,20.25914c.37095.26949.7419.53901,1.11284.80854.03634.02639.0847.01076.10933-.02314.02462-.03394.02455-.08474-.01178-.11113-.37095-.26952-.7419-.53905-1.11284-.80854-.0363-.02639-.08467-.01076-.10929.02314-.02466.0339-.02455.08474.01175.11113Z"/>
    <path class="cls-2" d="m23.77258,18.25873c.41889.18648.83775.37296,1.25664.55947.04103.01827.08506-.00706.10213-.04537.01704-.03831.00639-.08798-.03464-.10626-.41886-.18648-.83775-.37299-1.2566-.55947-.04103-.01827-.08509.00706-.10213.04537-.01704.03828-.00642.08798.03461.10626Z"/>
    <path class="cls-2" d="m24.19694,17.17743c.43611.14171.87218.28339,1.30825.4251.04269.01386.08386-.01595.0968-.05581s-.00282-.08816-.04551-.10202c-.43611-.14171-.87218-.28339-1.30825-.4251-.04269-.01386-.08386.01595-.0968.05581s.00282.08816.04551.10202Z"/>
    <path class="cls-2" d="m24.50598,16.05774c.44849.09532.89698.19064,1.3455.286.04392.00931.08174-.02462.09045-.06562s-.01203-.08738-.05595-.09673c-.44852-.09532-.89701-.19064-1.3455-.286-.04392-.00931-.08174.02462-.09045.06562s.01203.08738.05595.09673Z"/>
    <path class="cls-2" d="m24.54048,11.44337c.44849-.09536.89698-.19068,1.3455-.286.04392-.00935.06466-.05574.05595-.09673s-.04653-.07493-.09045-.06562c-.44852.09536-.89701.19068-1.3455.286-.04392.00935-.06466.05574-.05595.09673s.04653.07493.09045.06562Z"/>
    <path class="cls-2" d="m24.24824,10.31917c.43607-.14171.87214-.28339,1.30825-.4251.04269-.01386.05846-.06216.04551-.10202s-.05412-.06967-.0968-.05581c-.43607.14171-.87214.28339-1.30825.4251-.04269.01386-.05846.06216-.04551.10202s.05412.06967.0968.05581Z"/>
    <path class="cls-2" d="m23.84011,9.23166c.41886-.18648.83775-.37299,1.2566-.55947.04103-.01827.05168-.06795.03464-.10626-.01707-.03831-.0611-.06364-.10213-.04537-.41889.18651-.83775.37299-1.25664.55947-.04103.01827-.05165.06798-.03461.10626.01704.03831.0611.06364.10213.04537Z"/>
    <path class="cls-2" d="m22.69516,7.2139c.37095-.26949.7419-.53901,1.11284-.80854.03634-.02639.03641-.07719.01178-.11113-.02462-.0339-.07299-.04953-.10933-.02314-.37095.26952-.7419.53905-1.11284.80854-.0363.02639-.03641.07722-.01175.11113.02462.0339.07299.04953.10929.02314Z"/>
    <path class="cls-2" d="m21.97094,6.30573c.34075-.30678.6815-.61359,1.02225-.9204.03337-.03006.02812-.08061.00007-.11176s-.07775-.04163-.11113-.01157l-1.02225.92044c-.03334.03002-.02812.08057-.00007.11173s.07775.04163.11113.01157Z"/>
    <path class="cls-2" d="m21.15573,5.47829l.92044-1.02225c.03006-.03337.01958-.08308-.01157-.11113s-.0817-.03327-.11176.00007c-.30681.34075-.61363.6815-.9204,1.02225-.03006.03337-.01958.08308.01157.11113s.0817.03327.11173-.00007Z"/>
    <path class="cls-2" d="m20.25854,4.74055c.26949-.37095.53901-.7419.80854-1.11284.02639-.03634.01076-.0847-.02314-.10933-.03394-.02462-.08474-.02455-.11113.01178-.26952.37095-.53905.7419-.80854,1.11284-.02639.0363-.01076.08467.02314.10929.0339.02466.08474.02455.11113-.01175Z"/>
    <path class="cls-2" d="m18.25814,3.56559c.18648-.41889.37296-.83775.55947-1.25664.01827-.04103-.00706-.08506-.04537-.10213-.03831-.01704-.08798-.00639-.10626.03464-.18648.41886-.37299.83775-.55947,1.2566-.01827.04103.00706.08509.04537.10213.03828.01704.08798.00642.10626-.03461Z"/>
    <path class="cls-2" d="m17.17683,3.14123c.14171-.43611.28339-.87218.4251-1.30825.01386-.04269-.01595-.08386-.05581-.0968s-.08816.00282-.10202.04551c-.14171.43611-.28339.87218-.4251,1.30825-.01386.04269.01595.08386.05581.0968s.08816-.00282.10202-.04551Z"/>
    <path class="cls-2" d="m16.05714,2.83219c.09532-.44849.19064-.89698.286-1.3455.00931-.04392-.02462-.08174-.06562-.09045s-.08738.01203-.09673.05595c-.09532.44852-.19064.89701-.286,1.3455-.00931.04392.02462.08174.06562.09045s.08738-.01203.09673-.05595Z"/>
    <path class="cls-2" d="m14.91124,2.6419c.04794-.456.09589-.91201.14379-1.36801.00469-.04466-.03302-.07871-.07468-.08311-.0417-.00437-.08565.02113-.09035.06576-.04794.456-.09589.91204-.14379,1.36805-.00469.04463.03302.07871.07468.08308.0417.00437.08565-.0211.09035-.06576Z"/>
    <path class="cls-2" d="m13.80835,1.79717v-.53556c0-.07708-.06248-.13956-.13956-.13956s-.13956.06248-.13956.13956v.53556c0,.07708.06248.13956.13956.13956s.13956-.06248.13956-.13956Z"/>
    <path class="cls-2" d="m7.85356,3.31793l-.26776-.46376c-.03856-.06675-.12393-.08964-.19068-.05108-.06675.03852-.08964.1239-.05108.19064.08925.15459.17851.30921.26776.4638.03852.06675.1239.08961.19064.05108.06678-.03856.08964-.1239.05112-.19068Z"/>
    <path class="cls-2" d="m3.45694,7.6124c-.15459-.08925-.30921-.17851-.4638-.26776-.06675-.03856-.15212-.01566-.19064.05108-.03856.06675-.01566.15212.05108.19068l.46376.26776c.06678.03852.15212.01566.19068-.05112.03852-.06675.01566-.15212-.05108-.19064Z"/>
    <path class="cls-2" d="m1.79658,13.52982h-.53556c-.07708,0-.13956.06248-.13956.13956s.06248.13956.13956.13956h.53556c.07708,0,.13956-.06248.13956-.13956s-.06248-.13956-.13956-.13956Z"/>
    <path class="cls-2" d="m3.31734,19.48461l-.46376.26776c-.06675.03856-.08964.12393-.05108.19068.03852.06675.1239.08964.19064.05108.15459-.08925.30921-.17851.4638-.26776.06675-.03852.08961-.1239.05108-.19064-.03856-.06678-.1239-.08964-.19068-.05112Z"/>
    <path class="cls-2" d="m7.6118,23.88123c-.08925.15459-.17851.30921-.26776.4638-.03856.06675-.01566.15212.05108.19064.06675.03856.15212.01566.19068-.05108l.26776-.46376c.03852-.06678.01566-.15212-.05112-.19068-.06675-.03852-.15212-.01566-.19064.05108Z"/>
    <path class="cls-2" d="m13.52923,25.54159v.53556c0,.07708.06248.13956.13956.13956s.13956-.06248.13956-.13956v-.53556c0-.07708-.06248-.13956-.13956-.13956s-.13956.06248-.13956.13956Z"/>
    <path class="cls-2" d="m19.48401,24.02083l.26776.46376c.03856.06675.12393.08964.19068.05108.06675-.03852.08964-.1239.05108-.19064-.08925-.15459-.17851-.30921-.26776-.4638-.03852-.06675-.1239-.08961-.19064-.05108-.06678.03856-.08964.1239-.05112.19068Z"/>
    <path class="cls-2" d="m23.88064,19.72637c.15459.08925.30921.17851.4638.26776.06675.03856.15212.01566.19064-.05108.03856-.06675.01566-.15212-.05108-.19068l-.46376-.26776c-.06678-.03852-.15212-.01566-.19068.05112-.03852.06675-.01566.15212.05108.19064Z"/>
    <path class="cls-2" d="m24.02023,7.85416l.46376-.26776c.06675-.03856.08964-.12393.05108-.19068-.03852-.06675-.1239-.08964-.19064-.05108-.15459.08925-.30921.17851-.4638.26776-.06675.03852-.08961.1239-.05108.19064.03856.06678.1239.08964.19068.05112Z"/>
    <path class="cls-2" d="m19.72577,3.45753c.08925-.15459.17851-.30921.26776-.4638.03856-.06675.01566-.15212-.05108-.19064-.06675-.03856-.15212-.01566-.19068.05108l-.26776.46376c-.03852.06678-.01566.15212.05112.19068.06675.03852.15212.01566.19064-.05108Z"/>
    <path class="cls-2" d="m14.89743,26.38074c-.0321.00311-.06409.0061-.09619.00897-.05988.14941-.1214.29846-.18469.44696.02838-.00208.05676-.00427.08521-.00653.01898-.04675.03778-.09357.0564-.14044.07452-.00635.14893-.01343.22321-.02124.02612.04254.05249.08508.07904.12744.02905-.00323.05823-.00659.08734-.01007-.08569-.13409-.16913-.2691-.25031-.40509Zm-.12561.2641c.01752-.04309.03491-.0863.05225-.12952.01019-.02692.01886-.0542.02576-.0802.00055-.00006.00116-.00012.00171-.00018.01123.02344.02228.04834.03833.07507.0235.03906.04712.078.07098.11694-.06293.00647-.12592.01245-.18903.01788Z"/>
    <path class="cls-2" d="m15.62118,26.33582c-.05835-.02625-.14081-.03156-.25476-.0152-.06281.00891-.11969.02057-.16742.03204.01355.1402.02753.2804.04175.42053.04187-.00214.09009-.00684.14856-.01501.12262-.0174.21729-.05408.27051-.10382.05371-.04852.07703-.11115.06793-.18066-.00903-.06873-.04767-.1123-.10657-.13788Zm-.22076.37598c-.03186.00458-.06201.00793-.08258.00818-.01196-.1123-.02374-.22473-.03534-.3371.02045-.00598.05109-.013.09247-.0188.16748-.02441.25702.02502.26935.12598.01514.11487-.07019.19684-.2439.22174Z"/>
    <path class="cls-2" d="m16.15381,26.41525c-.07976.017-.1597.03309-.23975.04833.00748.05108.01496.10213.02254.15314.0901-.01718.17995-.03549.26967-.05482.00254.01517.00512.03034.00769.04551-.11681.02526-.23396.04868-.35144.07031-.02028-.14161-.04022-.28332-.05983-.42503.10979-.02018.21925-.04202.3284-.06551.0025.01545.00504.03094.00748.04639-.08326.01789-.16679.03478-.25047.0508.00649.04463.01302.08925.01958.13392.07976-.0152.15928-.03126.23869-.04815.00247.01506.00497.03009.00744.04516v-.00004Z"/>
    <path class="cls-2" d="m15.72994,18.68838c-.04504.0396-.09134.07879-.13759.11649-.03589.02928-.05648.02851-.0782.02784-.01096-.00034-.01555-.00398-.0211-.01139-.01178-.01589-.00947-.02967-.00521-.04604.0014-.00536.00286-.01094.0031-.0174.00011-.00239.00006-.00424.00034-.00571.00103-.00312.00805-.01468.01546-.02694.011-.01809.02741-.04517.05215-.08886.00388-.00685.00775-.01367.01163-.02052.04237-.07444.07299-.1282.07299-.18175,0-.01481,0-.05984-.03376-.09465-.01193-.01232-.0253-.02065-.03884-.02618.01552-.01867.03178-.03803.04935-.05876-.02261-.01912-.04517-.03824-.06776-.0574-.04759.05616-.08815.10549-.1197.14386-.00885.01072-.01772.02149-.02657.03225-.06647.08036-.10329.11505-.13895.14855-.01585.0149-.03126.02946-.04849.04709-.04334.04449-.0843.08647-.1484.13229-.02369.0169-.0737.05028-.14263.08419-.06541.03217-.09526.04683-.13509.05495-.09905.02048-.17202.00536-.217-.04481-.00334-.0037-.00642-.00754-.00924-.01139.02093-.00801.04177-.01611.06266-.02427.04492-.01751.09134-.03559.1397-.05224.03488-.01199.09991-.03437.17191-.08204.03271-.02162.06793-.04853.07213-.0939.0039-.0425-.01189-.05913-.03372-.08217-.00646-.00685-.01475-.01555-.02515-.02752-.02278-.02625-.07134-.061-.133-.07261-.10871-.02039-.19601.04692-.23799.07935-.03131.02425-.12667.09797-.13658.23072-.00116.01563-.00155.0422.00422.07323-.03643.01369-.0573.02164-.07114.02728-.09024.03682-.13554.05532-.16702.07062-.01008.00491-.01946.00956-.02819.01397-.04907.02452-.06643.03217-.08529.02704-.0132-.0036-.02082-.0099-.02485-.0146-.01223-.01408-.01167-.03775-.00769-.08481.00149-.01824.00674-.05626.02452-.10645.01279-.03626.0486-.11057.06699-.14202.01679-.01688.03217-.03486.04709-.0554.04573.00088.09056.00347.12964.00777.00325-.02943.0065-.05885.00975-.08828-.02629-.00289-.05476-.00497-.08408-.00642.00906-.01565.01845-.03206.02866-.05026.01393-.02489.02907-.05073.04483-.07758.03236-.05525.06582-.11238.0973-.17495-.02642-.01331-.05284-.02659-.0793-.0399-.03021.06003-.06294.11593-.09461.16993-.01606.02741-.03148.05381-.04569.07913-.02082.03721-.03792.06653-.05364.0914-.06419.00039-.12721.00403-.17844.01079.00392.02937.00779.05872.01169.08802.02793-.0037.06042-.00624.09465-.0079-.00732.00678-.01486.01337-.02304.01979-.0155.01214-.02435.01729-.06171.03906-.00891.00523-.01789.01044-.02685.01568-.01393.00818-.03105.01742-.05002.02769-.03497.01897-.07704.04194-.11808.06793-.00095-.01329-.00261-.02659-.00444-.0405-.00209-.01583-.00441-.03337-.00586-.05394-.00071-.01008-.00198-.02218-.00347-.03583-.00472-.04474-.01085-.10355-.00332-.15869.00252-.00211.00517-.00433.00728-.00607.00627-.00521.01255-.01044.01884-.01563-.01882-.02285-.03757-.04571-.05637-.06858-.00646.00534-.01292.0107-.01938.01606-.00751.00624-.01779.01488-.02999.02519-.00052-.00011-.00101-.00022-.00151-.00037-.00015.00065-.00022.00131-.00034.00194-.00904.0076-.01888.01591-.03004.02534-.1647.1391-.60223.50861-.71648.57034-.00603.00327-.00984.0048-.01221.00547-.00336-.00618-.00685-.01998-.00728-.03303-.00101-.03284.02203-.05913.032-.06886.00174-.00166.00342-.00336.00517-.00502.05775-.11218.11552-.22436.17327-.3365-.02627-.01354-.0526-.02713-.07887-.04067-.00437.00851-.00879.01699-.01316.02549-.02114-.02427-.04332-.03273-.08654-.04909-.00409-.00157-.00818-.00308-.01227-.00463-.06742-.02564-.08957-.02795-.10975-.02819-.00114,0-.00226-.00004-.0034-.00006-.04345-.00368-.066.00172-.10777.01869-.05144.02089-.08837.04808-.11024.06716-.03204.02791-.04978.05286-.07928.0942-.02366.03316-.04074.05715-.05781.09313-.00896.01901-.01447.03398-.01886.04604-.00657.01783-.01014.02767-.02132.04199-.00734.00939-.01565.01652-.03874.0357-.03365.02797-.06981.05256-.10755.07304-.01423.00769-.01953.0099-.027.01294-.00952.00388-.02261.00913-.05366.02452-.01359.0067-.02504.01262-.03499.01774-.01789.00917-.03637.01867-.0422.01869-.01555-.00392-.01886-.0084-.02235-.01311-.01667-.02254-.016-.02819-.0143-.04188.00181-.01471.00349-.02857.03585-.09814.02952-.06348.0483-.09274.05305-.09875.0304-.03818.04399-.05771.05592-.09743.00472-.01563.01746-.07007-.01723-.11505-.02448-.03176-.05867-.04018-.06989-.04293-.04156-.01021-.07235.00581-.08888.01449-.00241.00125-.00463.00248-.00674.0034-.02745.01173-.04741.02517-.06498.03699-.00519.00351-.01031.00691-.01552.01027-.01348.00857-.02216.01344-.0301.01791-.01884.01064-.03449.01955-.08546.05783.00034-.01486-.00093-.03077-.005-.04741-.01395-.05719-.0407-.09211-.07947-.10376-.02558-.00773-.05241-.00129-.10617.02541-.03288.01632-.05553.03034-.07747.04384-.00487.00301-.00975.00601-.01462.009-.02704.01641-.04119.02358-.05489.03049-.01167.00588-.02226.01124-.03751.02041-.00243.00146-.00459.00291-.00691.00435.00056-.00103.00114-.00205.0017-.00304.0214-.03807.0399-.07088.0399-.10023-.02961-.00041-.05917-.00088-.08873-.00133-.00144.00984-.01774.0388-.02857.05801-.01124.02002-.02293.04078-.03157.06074-.00984.02265-.01684.03996-.02254.05415-.011.02737-.01606.03986-.02808.05732-.01662.02409-.03796.04117-.08897.08085-.04371.03406-.07586.05523-.13862.09608-.04722.03073-.05379.03376-.06369.03835-.01247.00577-.02954.01367-.09773.05467-.0109.00657-.02719.01636-.03867.02145-.00118-.00373-.00239-.00769-.0034-.011-.00601-.01957-.00986-.03983-.01137-.06014-.00512.00034-.01021.00073-.01527.00112.02691-.03008.04087-.06091.04931-.07986.02806-.06289.07437-.15869.133-.27994.00521-.01079.01044-.02162.01565-.03243-.02664-.01288-.05329-.02575-.07993-.03863-.00523.01081-.01044.0216-.01568.03238-.00172.00357-.00345.00713-.00515.01066-.02853-.02315-.06531-.04571-.1108-.06031-.06085-.01955-.11294-.01658-.13516-.01529-.02377.00138-.07327.00426-.13091.03032-.0537.02422-.0857.05572-.11677.08628-.03215.03161-.07211.07095-.0987.13567-.00894.02177-.02556.06225-.02409.11629.00039.01415.00217.02664.00459.03891-.04644.01957-.09353.03854-.1403.05631-.10389.03936-.15914.05544-.21892.06363-.05305.0073-.07764.00452-.10008-.00228-.03658-.01109-.06029-.03165-.07446-.04393-.00435-.00377-.00922-.00801-.0143-.0127.02321-.00924.04642-.01847.06963-.02775.08339-.04164.16677-.08326.25012-.12489.02149-.00758.05766-.02562.08143-.06559.04244-.07127.00536-.145.00101-.15314-.03111-.05829-.08837-.0762-.11281-.08382-.07973-.02493-.14887.00144-.18212.0141-.06466.02465-.10434.06234-.12805.08486-.01979.01873-.0661.06268-.09722.13569-.01662.0391-.03385.07956-.0278.13376.00179.01619.00543.03129.0104.04522-.05157.02054-.10312.0411-.15466.06167.01098.02747.02194.05499.03288.08249.05598-.02235.11194-.04464.16793-.06696.01669.01923.03355.03389.04537.04416.01692.01468.05217.04524.10688.06182.02308.00698.04586.01044.07276.01044.01912,0,.04031-.00174.06518-.00517.06722-.00924.12732-.02655.23827-.0686.04485-.01701.0899-.03518.13449-.05387.00846.02377.0166.0419.03221.05913.03025.03348.06645.04349.09287.05079.01204.00336.03932.0109.07435.0109.02168,0,.04642-.00293.07235-.01152.00674-.00224.01206-.0037.01697-.00512.02399-.0067.04022-.0121.09459-.04414.01835-.01079.03139-.01985.04162-.02793.00183.00786.00342.0158.00581.02353.00846.02754.01578.05135.03983.06628.01245.00769.02519.01087.03807.01087.03232,0,.06554-.02.09698-.03895.06188-.03714.07644-.04393.0871-.04883.01503-.00698.02448-.01178.07482-.04455.00482-.00314.00928-.00607.01382-.00902-.01316.029-.02201.05467-.02201.07947h.0888c0-.01593.01826-.05245.03499-.08589.03704-.07413.08421-.1203.15572-.1903.05196-.05088.0767-.07439.11836-.09946.01294-.00775.0219-.01227.03178-.01725.01453-.00734.03096-.01565.06096-.03387.00508-.0031.01012-.0062.01518-.0093.0202-.01247.04108-.02536.07034-.03988.02489-.01238.03749-.01682.04313-.01841.0034.00325.01053.0127.01677.03831.00829.03391-.00506.06442-.01077.07745-.00762.0174-.01535.0267-.02939.04362-.00392.00478-.00784.00954-.01173.01434-.00284.00349-.06996.08731-.11565.19133-.00123.0028-.0025.00556-.00375.00833-.01305.02885-.03488.07719-.03566.1257.02958.0005.05919.00095.0888.00144.00045-.03017.01757-.06798.02775-.09061.00138-.00304.00276-.00609.00413-.00913.03604-.0821.08869-.1523.10086-.16799.02881-.02427.05962-.04621.08453-.06393.01219-.00863.02291-.01626.03129-.02265.05835-.04429.07228-.05213.08987-.06206.009-.00508.01884-.01062.03415-.02039.0059-.00373.01165-.00758.01744-.0115.01572-.01057.03062-.02061.05036-.02907.00403-.00168.00833-.00388.01288-.00627.01309-.00683.01843-.009.02653-.007.00538.00131.01533.00375.02082.01094.00939.01214.00286.03419.00254.03525-.00713.02377-.01242.03262-.04033.06765-.01481.0186-.03876.06221-.0641.11668-.03566.07655-.04035.09909-.04349.12473-.00422.03449-.00052.06279.03101.10551.01779.02403.04001.03835.07215.04642.00797.00202.01537.00293.02265.00293.02571,0,.04862-.01178.08174-.02875.0096-.00493.02071-.01066.03381-.0171.02814-.01395.03902-.01839.04769-.02192.00924-.00375.0172-.00698.03594-.01714.04115-.02233.08066-.0489.11752-.07913.00112.00452.00194.00823.00271.01143.00217.00945.00381.01602.0068.0242.01675.04554.10609.11595.14954.12573.05101.01146.17316-.03714.23373-.07797.00713.02689.02226.05768.05504.0714.01094.00452.02168.00629.0318.00629.02651,0,.04851-.01197.05736-.01675.11453-.06186.49605-.38189.69385-.54879.00106.03383.00428.06522.00695.09054.00131.01242.0025.02347.00317.03269.00159.02261.00411.04186.00639.0593.00497.03787.00795.06078-.00271.09179-.01324.03867-.03839.06417-.06765.09388-.03635.03688-.06262.06352-.10643.07435-.03531.00883-.07635.00629-.12267-.00751-.038-.01122-.06145-.03781-.07476-.0529-.02194.01985-.04388.03968-.06587.05954.01585.01796.05295.06001.11589.07863.03617.01077.07082.01617.10361.01617.02263,0,.04436-.00258.06513-.00773.06815-.01686.10891-.05824.14848-.09838.02433-.02468.05107-.05191.07123-.08878.0534-.04653.13119-.08886.18862-.12002.01669-.00906.0315-.01716.0447-.02468-.00138.00351-.00289.00726-.00398.0104-.0211.05962-.02745.10626-.02933.1287-.00441.05234-.00898.10654.02915.15047.01212.01395.03385.03258.06869.04207.01184.00321.02313.00463.03415.00463.0382,0,.07278-.01733.11408-.038.00846-.0042.01751-.00874.02728-.0135.02887-.01402.07327-.03215.16166-.06823.01285-.00521.03363-.01311.0683-.02618.00777.0132.01707.02625.02838.03882.04642.05178.1363.10632.30356.07196.0483-.0099.08576-.02829.15378-.06178.07457-.03665.12911-.0731.15501-.09158.07058-.05045.11625-.09726.16041-.14252.01626-.01669.03079-.03038.04578-.04446.03585-.03376.07648-.07196.14653-.15662.00889-.01083.01776-.02164.0267-.03243.00121-.00149.00265-.00325.00388-.00476.0115-.00142.03098-.00149.04076.00863.0087.009.0087.02508.0087.03286,0,.03006-.02704.0776-.06134.13783-.00392.00691-.00784.0138-.01178.02071-.02407.04255-.04007.06892-.05077.08656-.02028.03348-.02696.04446-.02847.07194-.00015.00056-.00028.00116-.00043.00172-.005.01921-.01826.07017.0199.12144.02237.03006.05247.04593.08936.04716.00385.00015.00773.00022.01169.00022.03415,0,.07457-.00642.12557-.04797.04713-.03841.09427-.07831.14011-.11864-.01955-.02222-.03906-.04446-.05861-.06668Zm-5.96516.11328v.00004c-.00226-.00702-.00388-.0144-.00476-.02209-.00345-.03105.00691-.05542.02127-.08919.02388-.05605.05947-.08981.07663-.10607.02013-.0191.05051-.04795.09859-.0663.01966-.00747.04875-.01858.08217-.01858.01337,0,.02741.00177.04179.00627.01873.00586.047.01468.06098.04087.00078.00146.01873.03622.00101.06595-.01062.01785-.02879.02536-.03613.02773-.08456.04212-.16916.08425-.25371.12637-.02928.01167-.05857.02336-.08785.03499Zm1.08321-.04543c-.00857.01925-.0203.0456-.04655.06843-.00829.00717-.0144.01352-.0205.01994-.01083.01139-.02018.02123-.05138.03958-.04705.02773-.05704.03053-.07351.03518-.00603.00166-.0126.00353-.02093.00629-.04216.01395-.08057.00334-.09506-.00069-.02026-.00556-.03775-.01044-.05071-.02476-.00687-.00762-.01079-.01809-.02108-.04864-.01148-.03404-.01779-.05275-.01845-.07769-.00095-.03527.01012-.06229.01746-.08014.01968-.04791.04978-.07752.07896-.10624.02771-.02726.05168-.05082.09093-.06854.0427-.01929.07969-.02145.09952-.02259.00596-.00034.01402-.0008.02364-.0008.02056,0,.04847.00207.07924.01195.04255.01365.075.03701.09788.05867-.03777.07842-.06826.14248-.08947.19004Zm2.02058.01341c-.02317.03516-.03376.05125-.04765.06477-.02974.02892-.14963.07571-.17589.07357-.0194-.00525-.07743-.0528-.08587-.06985-.00166-.0045-.00243-.0082-.00364-.01348-.00207-.00898-.00487-.02112-.01111-.04201-.00276-.0093-.0053-.01729-.00726-.02336.00958-.01604.01481-.0303.02024-.04515.0042-.01143.00855-.02323.0158-.03863.01365-.02881.02728-.04791.04989-.07963.02735-.03841.0411-.05766.06526-.07876.01376-.01199.04315-.03469.08529-.05183.03243-.01316.04054-.01468.06696-.01245.00329.00028.00639.00034.00973.00039.00788.00011.0211.00024.07924.02235.00418.00159.00833.00314.01247.00474.04024.0152.04554.01779.05161.02493.00321.00381.01072.01275.01074.02099,0,.00338-.00282.00795-.01255.02194-.00396.00568-.00829.01193-.01294.0191-.00928.01438-.01227.02089-.01716.03206-.00381.00872-.00956.02183-.02461.05094-.01656.03195-.03723.07174-.06856.11935Zm1.66636-.10365c.00624-.08361.06141-.13537.10241-.16705.03221-.02487.08359-.06455.14306-.06455.0079,0,.01598.00071.02416.00226.04365.00818.07426.03421.08238.04356.0115.0132.02061.02282.02775.03038.0036.00377.00751.00792.00993.01068-.00009.00071-.00011.00144-.00022.00226-.00006.00112-.00215.00775-.03271.02797-.06262.04143-.11847.06066-.1543.07299-.04759.01636-.09483.0348-.14056.0526-.02035.00795-.0407.01587-.06113.02366-.00172-.01561-.00127-.02819-.00078-.03477Z"/>
    <g>
      <path d="m11.87735,20.11545c.03006-.09554.02632-.24138.01695-.32226-.01998-.1772-.07181-.21023-.08863-.22118-.12734-.08119-.62675-.10546-.73684-.01359h-.00034c-.0779.065-.077.26569-.07493.32565.00294.08632.01962.23973.09647.29547.05077.03699.2353.06011.40996.06113.1187.00069.232-.00909.29664-.0315l.01114.00952c.01166.00989.02575.01462.03988.0147.01757.0001.03484-.0072.04732-.0216.0222-.02588.01898-.06483-.00673-.08703l-.01088-.0093Zm-.71475-.03575c-.0072-.00538-.03076-.04255-.04122-.1396-.01572-.14048.00843-.26454.02682-.28717.06365-.04459.49495-.03794.58866.02134.03581.03677.0504.24208.03814.35372l-.11919-.10183c-.02606-.02186-.06432-.01881-.0872.00673-.0222.02588-.01898.065.00673.0872l.10449.08928c-.15348.0151-.46362.00186-.51723-.02967Z"/>
      <path d="m12.82087,19.52882c-.03651-.00107-.06285.0253-.06408.05923-.00244.06407-.00279.12453-.00312.18051-.00087.14986-.00128.27922-.04661.31203-.03079.02204-.08177.02002-.17545.01483-.03341-.00192-.07026-.00403-.11125-.00495-.13951-.0034-.17078-.01702-.18243-.02828-.0209-.02028-.03317-.04343-.04192-.07742-.02594-.10041-.01293-.20592-.0017-.29888.00434-.0346.00831-.06696.00986-.09589.00192-.03392-.02409-.06319-.05819-.06511-.03444-.00141-.06319.02409-.06511.05819-.00153.02635-.00515.05595-.00912.0878-.01194.09881-.02713.22171.00488.34455.0138.05572.03767.09858.07466.13497.04556.04419.11024.05973.26629.06339.03961.00092.07509.00302.10677.00493.03272.00174.06303.00347.09059.00363.06477.00038.11752-.00758.16458-.04176.09584-.06955.09667-.21287.09783-.4113-.00003-.05478.00032-.11386.00275-.17655.00123-.03393-.02513-.06268-.05923-.06391Z"/>
      <path d="m13.49323,19.55358c-.01127-.01643-.03016-.02619-.05015-.0263h-.00138c-.02033.00022-.03934.01062-.05046.02778l-.34657.52888c-.01877.02866-.01073.06695.01776.08554.0103.00678.02165.00994.03336.01001.02033.00012.04002-.00959.05184-.02778l.06055-.09232.49058.00286.06212.08873c.01947.02802.05733.03461.08604.01514.02767-.01948.03445-.05802.01497-.08587l-.36867-.52668Zm-.20448.38295l.15575-.2375.16757.23938-.32332-.00188Z"/>
      <path d="m14.83172,19.66388c-.03053-.08097-.10821-.1126-.17042-.13794-.14814-.06012-.2957-.041-.4381-.02219-.0493.00643-.08931.01395-.11552.01914-.02897.00569-.04979.03123-.04962.06086l.00338.54384c.00015.03376.02755.06097.06131.06116h.00069c.03411-.00014.06183-.02806.06134-.06217l-.00092-.13764c.052.00358.09986.00833.14738.01309.06921.00695.13842.01373.22556.01751.01342-.00087.02399-.00854.03684-.01098.01682.02544.03368.05093.052.07799.02494.03666.04987.0735.07035.106.01195.01833.03153.02843.05186.02855.01137.00007.0231-.00297.03347-.00962.0287-.01826.03719-.05646.0191-.08516-.02151-.03354-.04713-.07125-.07275-.10912-.01292-.01898-.02414-.03642-.03644-.05488.0922-.06604.16189-.18949.12049-.29845Zm-.20483.20948c-.02282.0133-.04904.02107-.0711.02284-.07818-.00356-.14533-.01032-.21212-.01691-.05199-.0053-.10364-.01042-.16046-.0142l-.00141-.23032c.0169-.00283.03621-.00582.05724-.00862.1386-.01831.25824-.03381.37579.01425.05602.02272.09073.0386.10159.06726.01764.04696-.02659.12904-.08951.16571Z"/>
      <path d="m15.68114,19.515l-.72794-.00424c-.03411-.0002-.06183.0272-.06203.06131s.0272.06183.06131.06203l.30695.00179-.00294.50401c-.0002.03411.0272.06183.06131.06203s.06183-.0272.06203-.06131l.00294-.50401.29765.00173c.03411.0002.06183-.0272.06203-.06131s-.0272-.06183-.06131-.06203Z"/>
      <path d="m16.57227,20.07004l-.48914-.0125c.06233-.0551.12674-.11106.19115-.16684.10284-.0888.20499-.17761.29989-.26336.0187-.01677.02506-.04309.01658-.06674-.00848-.02348-.03043-.03962-.05558-.04063-.10815-.00442-.22459-.00579-.34103-.00698-.11368-.00118-.22702-.00236-.33277-.00659-.03822-.00315-.06285.02513-.06408.05923-.00158.03393.02513.06268.05923.06408.10677.00441.22149.0056.33621.00678.06132.0007.12264.00123.18292.00244-.05956.05236-.12085.10541-.18214.15845-.10596.09171-.21157.1836-.30924.27209-.0187.01694-.0254.04361-.01658.06726s.03112.03946.05627.04012l.64553.01651h.00103c.03342.0002.06113-.02651.06202-.0601.00089-.0341-.02616-.06251-.06027-.06323Z"/>
    </g>
    <g>
      <path d="m11.39284,7.91229c-.31779.0139-.57165.28221-.56624.59783.00253.15564.06717.3019.182.4115.11086.10599.25964.16611.41059.16611.00506,0,.00975-.00018.01481-.00018.15781-.00415.31092-.07403.41998-.19175s.16467-.2694.15673-.42684c-.01661-.32158-.29684-.574-.61788-.55667Zm.33909.87048c-.07872.08504-.18887.13542-.30226.13831-.10978.01083-.22317-.04063-.30623-.11971-.08197-.07872-.12856-.18327-.13073-.29413-.00361-.22642.17912-.41872.40734-.42883.00614-.00018.01228-.00036.01842-.00036.22137,0,.41456.17912.42612.39958.00578.11213-.03431.22046-.11267.30515Z"/>
      <path d="m13.07783,8.06468c-.01156-.03268-.04261-.05471-.07728-.05525h-.00108c-.03431,0-.06536.02113-.07764.05327-.04767.12368-.09642.27427-.14481.42486-.02203.06789-.0437.13578-.06572.20114-.02275-.06627-.04514-.13398-.06789-.20187-.04875-.1468-.0975-.29377-.14986-.42486-.013-.0325-.052-.05543-.07981-.05254-.03503.00126-.06572.02419-.07656.05742-.0455.13939-.0957.2786-.14625.418-.05092.14102-.10184.28203-.1477.42287-.01408.0437.00975.09064.05345.10491.04225.01499.09028-.00957.10472-.05327.0455-.13939.0957-.2786.14625-.418.02383-.06645.04803-.13307.0715-.19952.02239.06482.04442.13127.06645.19753.04875.1468.0975.29377.14986.42486.01264.03178.04333.05254.07728.05254h.00036c.03431-.00018.065-.02131.07728-.05327.04767-.12368.09642-.27427.14481-.42486.02094-.06518.04189-.13018.06283-.19302.02131.06302.04261.1282.06392.19338.04875.14896.09786.29792.14228.42251.01228.03395.04406.05525.07836.05525.00939,0,.01878-.00163.02781-.00488.04333-.01553.06608-.06302.05056-.10635-.04406-.12332-.09245-.27084-.14084-.41836-.04875-.14896-.09786-.29792-.14228-.42251Z"/>
      <path d="m14.06946,8.58307c.0455,0,.08234-.03647.08306-.08179.00072-.04604-.03575-.08396-.08161-.08468l-.39263-.0065-.0028-.29449.36545.00722c.05308.00343.08414-.03539.08486-.08161.00108-.04586-.03539-.08378-.08125-.08486l-.45176-.00885c-.02817-.00054-.04406.00849-.05995.02419s-.02492.03738-.02456.05977l.00903.92934c.00036.04514.03647.08161.08161.08252l.46909.00885h.00144c.04514,0,.08234-.03629.08306-.08161.00108-.04604-.03575-.08396-.08161-.08486l-.3882-.00722-.00287-.30183.38818.00643h.00144Z"/>
      <path d="m15.44568,8.52872c-.01589-.0204-.04045-.0325-.06608-.0325h-.47812c-.04586,0-.08306.03738-.08306.08324s.0372.08324.08306.08324h.35679c-.09534.18056-.29395.28619-.48932.24267-.21523-.04785-.35642-.27012-.33404-.42937.02239-.15817.13217-.30244.27337-.35913.14264-.05706.3019-.02185.46007.1031.03683.02871.08811.02239.117-.0139.02853-.03611.02239-.08829-.01372-.11682-.20439-.16106-.42576-.20638-.62546-.12675-.19464.07818-.34559.27517-.37593.4904-.03286.23437.15781.5471.46259.61499.04081.00903.08197.01336.12278.01336.27228,0,.52904-.19555.60451-.48047.0065-.0251.00108-.05164-.01444-.07204Z"/>
      <path d="m16.54168,8.89489l-.46909-.89395c-.01408-.02708-.04189-.04424-.07258-.0446-.03467.00542-.0585.01607-.07367.04261l-.51315.92049c-.02239.04026-.00794.09082.03214.11321.01264.00722.02672.01065.04045.01065.02925,0,.05742-.01535.07258-.04261l.12147-.21789c.12271.00056.21374.003.29959.00591.0915.00289.18677.00571.32187.00607l.09306.17738c.02131.04045.0715.05615.11231.03503.04081-.02131.05633-.07168.03503-.11231Zm-.55685-.27265c-.06392-.00201-.13395-.00372-.21274-.00494l.22466-.40294.21672.41305c-.08608-.00111-.16083-.00287-.22863-.00517Z"/>
    </g>
  </g>
  <g id="B.SilkS">
    <line class="cls-1" x1="13.66879" x2="13.66879" y2="27.33844"/>
    <line class="cls-1" x1="27.33758" y1="13.668" y2="13.668"/>
  </g>
</svg>