%TF.GenerationSoftware,KiCad,Pcbnew,(5.1.12)-1*%
%TF.CreationDate,2023-02-20T15:46:43-05:00*%
%TF.ProjectId,seamaster-face,7365616d-6173-4746-9572-2d666163652e,rev?*%
%TF.SameCoordinates,Original*%
%TF.FileFunction,Legend,Top*%
%TF.FilePolarity,Positive*%
%FSLAX46Y46*%
G04 Gerber Fmt 4.6, Leading zero omitted, Abs format (unit mm)*
G04 Created by KiCad (PCBNEW (5.1.12)-1) date 2023-02-20 15:46:43*
%MOMM*%
%LPD*%
G01*
G04 APERTURE LIST*
%ADD10C,0.100000*%
G04 APERTURE END LIST*
D10*
%TO.C,SeaMasterFace*%
G36*
X150397900Y-70779480D02*
G01*
X150425900Y-70815140D01*
X150575200Y-71099660D01*
X150451700Y-71222360D01*
X150350100Y-71028560D01*
X150125400Y-71431500D01*
X150029800Y-71261280D01*
X150279600Y-70813150D01*
X150306700Y-70781280D01*
X150353300Y-70770540D01*
X150397900Y-70779480D01*
G37*
G36*
X150895000Y-71709090D02*
G01*
X150895000Y-71709080D01*
X150906400Y-71740770D01*
X150887400Y-71801770D01*
X150860000Y-71821390D01*
X150828200Y-71832630D01*
X150767200Y-71813600D01*
X150747600Y-71786360D01*
X150654600Y-71608980D01*
X150471900Y-71607210D01*
X150332700Y-71602910D01*
X150201400Y-71598780D01*
X150033100Y-71597000D01*
X149911700Y-71814890D01*
X149882400Y-71849820D01*
X149839100Y-71857500D01*
X149818300Y-71855780D01*
X149798600Y-71846850D01*
X149771800Y-71826540D01*
X149754300Y-71765120D01*
X149766500Y-71733640D01*
X150029800Y-71261280D01*
X150125400Y-71431500D01*
X150239200Y-71433570D01*
X150338100Y-71436440D01*
X150443300Y-71439620D01*
X150566800Y-71441610D01*
X150451700Y-71222360D01*
X150575200Y-71099660D01*
X150895000Y-71709090D01*
G37*
G36*
X149389900Y-70769710D02*
G01*
X149547800Y-70846670D01*
X149624900Y-70903450D01*
X149648300Y-70927800D01*
X149655700Y-70991180D01*
X149638600Y-71020270D01*
X149614200Y-71043740D01*
X149551100Y-71051320D01*
X149521700Y-71034170D01*
X149402900Y-70951680D01*
X149170600Y-70899810D01*
X149061600Y-70931070D01*
X148959600Y-70984530D01*
X148815900Y-71173310D01*
X148788200Y-71290200D01*
X148784900Y-71351890D01*
X148825300Y-71483830D01*
X148914400Y-71606010D01*
X149043900Y-71696180D01*
X149122300Y-71719570D01*
X149195600Y-71731230D01*
X149338400Y-71711420D01*
X149467400Y-71646110D01*
X149572600Y-71542270D01*
X149611600Y-71476900D01*
X149254800Y-71476900D01*
X149221500Y-71472230D01*
X149176400Y-71427000D01*
X149171700Y-71393660D01*
X149176400Y-71360320D01*
X149221500Y-71315090D01*
X149254800Y-71310420D01*
X149732900Y-71310420D01*
X149770800Y-71316470D01*
X149799000Y-71342920D01*
X149799000Y-71342940D01*
X149817200Y-71376610D01*
X149813400Y-71414980D01*
X149779500Y-71519030D01*
X149662600Y-71694230D01*
X149501100Y-71820990D01*
X149310500Y-71889340D01*
X149208900Y-71895450D01*
X149147500Y-71893280D01*
X149086100Y-71882090D01*
X148975400Y-71848980D01*
X148794700Y-71721400D01*
X148672300Y-71547450D01*
X148618200Y-71357440D01*
X148623500Y-71267100D01*
X148638700Y-71186960D01*
X148703100Y-71037090D01*
X148801900Y-70908200D01*
X148927800Y-70809730D01*
X148999500Y-70776700D01*
X149075000Y-70750740D01*
X149231100Y-70737450D01*
X149389900Y-70769710D01*
G37*
G36*
X148397800Y-70770560D02*
G01*
X148431100Y-70775980D01*
X148475200Y-70822020D01*
X148479100Y-70855420D01*
X148474800Y-70889160D01*
X148431300Y-70934320D01*
X148394200Y-70937030D01*
X148028800Y-70929810D01*
X148031600Y-71224300D01*
X148424200Y-71230800D01*
X148457400Y-71235990D01*
X148501700Y-71281960D01*
X148505800Y-71315480D01*
X148500800Y-71348360D01*
X148455800Y-71392710D01*
X148422800Y-71397270D01*
X148422700Y-71397290D01*
X148421300Y-71397290D01*
X148033100Y-71390860D01*
X148036000Y-71692690D01*
X148424200Y-71699910D01*
X148457500Y-71705210D01*
X148501900Y-71751260D01*
X148505800Y-71784770D01*
X148500700Y-71817630D01*
X148455600Y-71861840D01*
X148422700Y-71866380D01*
X148421300Y-71866380D01*
X147952200Y-71857530D01*
X147919500Y-71852400D01*
X147875300Y-71807780D01*
X147870600Y-71775010D01*
X147861600Y-70845670D01*
X147865700Y-70812440D01*
X147886100Y-70785900D01*
X147910000Y-70765680D01*
X147946100Y-70761710D01*
X148397800Y-70770560D01*
G37*
G36*
X147404000Y-70835180D02*
G01*
X147431100Y-70878880D01*
X147431100Y-70878860D01*
X147500100Y-71077930D01*
X147573400Y-71301370D01*
X147646000Y-71522650D01*
X147714300Y-71719730D01*
X147721100Y-71752750D01*
X147693600Y-71810440D01*
X147663700Y-71826080D01*
X147650000Y-71830150D01*
X147635900Y-71830960D01*
X147585700Y-71820310D01*
X147557500Y-71775710D01*
X147488500Y-71576640D01*
X147415200Y-71353200D01*
X147383300Y-71255430D01*
X147351300Y-71159820D01*
X147319900Y-71255160D01*
X147288500Y-71352840D01*
X147215700Y-71578730D01*
X147143700Y-71777700D01*
X147116100Y-71820220D01*
X147066400Y-71830970D01*
X147066000Y-71830970D01*
X147016700Y-71820590D01*
X146988800Y-71778430D01*
X146912000Y-71573860D01*
X146838900Y-71353570D01*
X146805900Y-71254090D01*
X146772500Y-71156040D01*
X146736900Y-71255800D01*
X146700900Y-71355560D01*
X146625300Y-71564570D01*
X146554700Y-71773560D01*
X146539700Y-71803940D01*
X146482400Y-71833130D01*
X146450000Y-71826830D01*
X146419700Y-71812040D01*
X146390700Y-71755100D01*
X146396500Y-71721920D01*
X146467800Y-71510570D01*
X146544200Y-71299050D01*
X146619900Y-71090050D01*
X146690500Y-70881050D01*
X146716700Y-70836350D01*
X146767000Y-70823630D01*
X146814400Y-70832210D01*
X146846900Y-70876170D01*
X146923600Y-71080750D01*
X146996700Y-71301030D01*
X147030700Y-71402780D01*
X147064600Y-71502900D01*
X147097500Y-71403590D01*
X147130300Y-71301760D01*
X147203100Y-71075880D01*
X147275100Y-70876900D01*
X147302900Y-70834190D01*
X147352800Y-70823630D01*
X147353900Y-70823630D01*
X147404000Y-70835180D01*
G37*
G36*
X145754800Y-70890150D02*
G01*
X145758500Y-70891200D01*
X145753400Y-70892610D01*
X145745600Y-70891430D01*
X145754800Y-70890150D01*
G37*
G36*
X145770400Y-70887980D02*
G01*
X146116400Y-70839710D01*
X146152900Y-70872630D01*
X145891800Y-70913350D01*
X145853900Y-70897850D01*
X145771800Y-70892250D01*
X145762600Y-70892340D01*
X145758500Y-70891200D01*
X145770400Y-70887980D01*
G37*
G36*
X145669200Y-70902090D02*
G01*
X145394200Y-70867030D01*
X145418300Y-70841520D01*
X145745600Y-70891430D01*
X145669200Y-70902090D01*
G37*
G36*
X145669200Y-70902090D02*
G01*
X145521700Y-70971060D01*
X145411000Y-71087520D01*
X145350500Y-71237600D01*
X145346000Y-71321440D01*
X145353200Y-71403800D01*
X145419700Y-71553300D01*
X145476700Y-71615570D01*
X145542800Y-71671430D01*
X145700200Y-71735620D01*
X145783000Y-71735280D01*
X145867600Y-71727180D01*
X146022300Y-71656420D01*
X146085200Y-71596980D01*
X146139200Y-71530510D01*
X146196500Y-71375450D01*
X146197900Y-71291830D01*
X146187900Y-71210450D01*
X146118300Y-71067070D01*
X146002200Y-70958560D01*
X145891800Y-70913350D01*
X146152900Y-70872630D01*
X146248700Y-70958880D01*
X146349500Y-71164730D01*
X146364000Y-71283160D01*
X146362000Y-71400520D01*
X146282400Y-71617460D01*
X146207300Y-71710000D01*
X146120000Y-71792310D01*
X145905100Y-71890420D01*
X145787300Y-71901750D01*
X145772500Y-71901930D01*
X145659500Y-71894420D01*
X145449800Y-71809580D01*
X145361900Y-71735820D01*
X145282100Y-71649040D01*
X145189600Y-71439880D01*
X145179900Y-71324320D01*
X145186000Y-71207440D01*
X145270000Y-70998180D01*
X145394200Y-70867030D01*
X145669200Y-70902090D01*
G37*
G36*
X145418300Y-70841520D02*
G01*
X145423800Y-70835770D01*
X145476700Y-70810970D01*
X145754800Y-70890150D01*
X145745600Y-70891430D01*
X145418300Y-70841520D01*
G37*
G36*
X146080300Y-70807180D02*
G01*
X146116400Y-70839710D01*
X145770400Y-70887980D01*
X146074800Y-70805170D01*
X146080300Y-70807180D01*
G37*
G36*
X145753400Y-70892610D02*
G01*
X145669200Y-70902090D01*
X145745600Y-70891430D01*
X145753400Y-70892610D01*
G37*
G36*
X145476700Y-70810970D02*
G01*
X145629000Y-70739650D01*
X145746100Y-70726490D01*
X145865200Y-70728420D01*
X146074800Y-70805170D01*
X145758500Y-70891200D01*
X145476700Y-70810970D01*
G37*
G36*
X145762600Y-70892340D02*
G01*
X145753400Y-70892610D01*
X145758500Y-70891200D01*
X145762600Y-70892340D01*
G37*
G36*
X150377100Y-82325400D02*
G01*
X150547400Y-82327200D01*
X150722100Y-82329100D01*
X150888500Y-82334200D01*
X150924600Y-82343300D01*
X150944000Y-82374800D01*
X150949400Y-82411600D01*
X150927500Y-82441500D01*
X150781500Y-82571700D01*
X150627600Y-82704900D01*
X150531000Y-82788700D01*
X150436400Y-82871700D01*
X150925600Y-82884200D01*
X150973200Y-82899200D01*
X150985800Y-82947500D01*
X150971100Y-82994400D01*
X150923800Y-83007600D01*
X150922800Y-83007600D01*
X150277300Y-82991100D01*
X150241000Y-82982500D01*
X150221000Y-82950900D01*
X150215500Y-82913900D01*
X150237600Y-82883700D01*
X150388000Y-82749200D01*
X150546800Y-82611600D01*
X150638700Y-82532000D01*
X150729000Y-82453100D01*
X150638000Y-82451700D01*
X150546000Y-82450700D01*
X150373900Y-82448900D01*
X150209800Y-82443900D01*
X150162400Y-82428100D01*
X150150600Y-82379800D01*
X150154400Y-82355000D01*
X150187700Y-82322200D01*
X150214700Y-82320600D01*
X150377100Y-82325400D01*
G37*
G36*
X150034400Y-82329200D02*
G01*
X150082200Y-82343300D01*
X150095700Y-82391200D01*
X150081700Y-82439000D01*
X150033700Y-82452500D01*
X149736100Y-82450800D01*
X149733100Y-82954800D01*
X149719100Y-83002600D01*
X149671100Y-83016100D01*
X149623300Y-83002100D01*
X149609800Y-82954100D01*
X149612700Y-82450100D01*
X149305800Y-82448300D01*
X149258000Y-82434200D01*
X149244500Y-82386300D01*
X149258500Y-82338500D01*
X149306500Y-82325000D01*
X150034400Y-82329200D01*
G37*
G36*
X148612800Y-82435800D02*
G01*
X148591000Y-82439600D01*
X148436700Y-82348500D01*
X148461000Y-82337100D01*
X148479500Y-82333500D01*
X148679700Y-82420800D01*
X148612800Y-82435800D01*
G37*
G36*
X149023600Y-82343800D02*
G01*
X149059200Y-82358300D01*
X148685300Y-82423200D01*
X148679700Y-82420800D01*
X149023600Y-82343800D01*
G37*
G36*
X148592300Y-82440300D02*
G01*
X148561700Y-82444600D01*
X148591000Y-82439600D01*
X148592300Y-82440300D01*
G37*
G36*
X148592300Y-82440300D02*
G01*
X148591000Y-82439600D01*
X148612800Y-82435800D01*
X148592300Y-82440300D01*
G37*
G36*
X148536500Y-82679300D02*
G01*
X148619200Y-82685600D01*
X148697000Y-82693500D01*
X148797300Y-82703500D01*
X148909100Y-82710400D01*
X148944300Y-82704700D01*
X148980200Y-82687600D01*
X149025100Y-82654400D01*
X149075200Y-82561500D01*
X149069700Y-82521900D01*
X149041500Y-82485300D01*
X148968100Y-82454600D01*
X148879700Y-82426500D01*
X148693900Y-82427000D01*
X148685300Y-82423200D01*
X149059200Y-82358300D01*
X149063200Y-82359900D01*
X149156200Y-82423500D01*
X149185000Y-82478100D01*
X149202200Y-82561600D01*
X149130900Y-82719800D01*
X149064500Y-82776500D01*
X149082400Y-82803700D01*
X149101000Y-82831400D01*
X149139400Y-82888100D01*
X149173700Y-82940500D01*
X149187600Y-82988300D01*
X149154600Y-83025700D01*
X149138400Y-83033900D01*
X149121100Y-83035300D01*
X149091000Y-83030100D01*
X149069300Y-83006800D01*
X149036300Y-82955800D01*
X148998900Y-82900700D01*
X148972200Y-82860900D01*
X148946900Y-82822800D01*
X148928800Y-82829000D01*
X148910100Y-82833700D01*
X148788400Y-82826600D01*
X148684500Y-82816200D01*
X148613100Y-82809100D01*
X148537200Y-82803100D01*
X148538100Y-82940800D01*
X148524700Y-82988800D01*
X148476700Y-83002900D01*
X148476000Y-83002900D01*
X148428600Y-82989200D01*
X148414700Y-82941800D01*
X148411400Y-82397900D01*
X148421600Y-82355600D01*
X148436700Y-82348500D01*
X148591000Y-82439600D01*
X148561700Y-82444600D01*
X148535100Y-82449000D01*
X148536500Y-82679300D01*
G37*
G36*
X148479500Y-82333500D02*
G01*
X148507200Y-82328100D01*
X148576500Y-82318000D01*
X148683900Y-82303800D01*
X148903600Y-82305000D01*
X149014600Y-82340100D01*
X149023600Y-82343800D01*
X148679700Y-82420800D01*
X148479500Y-82333500D01*
G37*
G36*
X148693900Y-82427000D02*
G01*
X148592300Y-82440300D01*
X148679700Y-82420800D01*
X148693900Y-82427000D01*
G37*
G36*
X147825800Y-82346500D02*
G01*
X147846500Y-82367800D01*
X148037700Y-82640800D01*
X147965400Y-82752600D01*
X147797800Y-82513200D01*
X147642100Y-82750700D01*
X147569600Y-82636200D01*
X147744500Y-82369300D01*
X147765200Y-82346900D01*
X147795000Y-82341500D01*
X147796400Y-82341500D01*
X147825800Y-82346500D01*
G37*
G36*
X147642100Y-82750700D02*
G01*
X147965400Y-82752600D01*
X148037700Y-82640800D01*
X148215200Y-82894400D01*
X148231300Y-82941600D01*
X148200200Y-82980300D01*
X148152600Y-82996500D01*
X148114200Y-82965200D01*
X148052100Y-82876400D01*
X147561500Y-82873600D01*
X147500900Y-82965900D01*
X147479300Y-82989000D01*
X147449100Y-82993700D01*
X147431700Y-82992000D01*
X147415700Y-82983700D01*
X147383200Y-82945900D01*
X147398000Y-82898100D01*
X147569600Y-82636200D01*
X147642100Y-82750700D01*
G37*
G36*
X146546400Y-82355600D02*
G01*
X146557500Y-82404200D01*
X146553900Y-82449300D01*
X146547600Y-82500100D01*
X146529900Y-82645800D01*
X146549300Y-82799000D01*
X146564200Y-82844500D01*
X146591200Y-82876400D01*
X146618500Y-82894500D01*
X146773700Y-82904700D01*
X146833100Y-82906600D01*
X146884900Y-82909600D01*
X147004100Y-82915800D01*
X147060400Y-82894800D01*
X147088700Y-82858100D01*
X147106400Y-82692600D01*
X147107000Y-82582800D01*
X147107500Y-82496500D01*
X147110100Y-82402200D01*
X147124500Y-82355100D01*
X147174200Y-82343000D01*
X147221400Y-82358600D01*
X147233400Y-82406900D01*
X147230800Y-82499200D01*
X147230600Y-82583500D01*
X147229800Y-82725400D01*
X147192800Y-82933400D01*
X147132800Y-82994800D01*
X147059400Y-83033000D01*
X146968200Y-83036500D01*
X146925500Y-83035500D01*
X146877700Y-83032900D01*
X146828200Y-83030000D01*
X146770900Y-83028000D01*
X146665300Y-83023800D01*
X146541100Y-82994200D01*
X146504600Y-82964600D01*
X146455700Y-82906800D01*
X146429900Y-82829600D01*
X146405500Y-82645300D01*
X146425000Y-82485100D01*
X146430800Y-82438400D01*
X146434200Y-82397300D01*
X146450500Y-82350400D01*
X146499300Y-82339100D01*
X146546400Y-82355600D01*
G37*
G36*
X145900200Y-82320800D02*
G01*
X146099600Y-82357500D01*
X146108100Y-82361700D01*
X145824200Y-82446400D01*
X145595200Y-82440100D01*
X145501500Y-82467100D01*
X145414900Y-82382000D01*
X145421800Y-82372600D01*
X145422100Y-82372600D01*
X145475600Y-82341800D01*
X145668500Y-82313700D01*
X145900200Y-82320800D01*
G37*
G36*
X146159000Y-82386200D02*
G01*
X146176000Y-82397200D01*
X146228600Y-82492500D01*
X146247600Y-82607400D01*
X146258800Y-82761200D01*
X146230600Y-82929600D01*
X146230700Y-82929700D01*
X146241500Y-82939000D01*
X146268900Y-82980600D01*
X146248300Y-83026000D01*
X146227200Y-83044000D01*
X146200900Y-83047600D01*
X146179800Y-83045100D01*
X146161100Y-83032900D01*
X146149900Y-83023400D01*
X146028600Y-83050700D01*
X145853300Y-83054900D01*
X145721100Y-83051300D01*
X145498100Y-83019700D01*
X145443300Y-82993700D01*
X145393200Y-82939700D01*
X145350800Y-82771400D01*
X145346900Y-82698300D01*
X145345500Y-82635700D01*
X145373200Y-82438300D01*
X145414900Y-82382000D01*
X145501500Y-82467100D01*
X145471000Y-82551800D01*
X145474700Y-82754300D01*
X145496900Y-82869900D01*
X145515900Y-82893900D01*
X145588200Y-82915300D01*
X145898400Y-82931400D01*
X146033100Y-82923600D01*
X145928600Y-82834300D01*
X145901300Y-82792500D01*
X145921900Y-82747100D01*
X145963900Y-82720000D01*
X146009100Y-82740400D01*
X146128300Y-82842200D01*
X146134100Y-82746800D01*
X146114400Y-82537100D01*
X146090200Y-82488500D01*
X145977700Y-82450600D01*
X145824200Y-82446400D01*
X146108100Y-82361700D01*
X146159000Y-82386200D01*
G37*
G36*
X149939700Y-81040000D02*
G01*
X149973600Y-81068700D01*
X149965900Y-81077800D01*
X149821000Y-81112800D01*
X149837900Y-81092100D01*
X149883400Y-81038000D01*
X149934100Y-81035300D01*
X149939700Y-81040000D01*
G37*
G36*
X148139000Y-81227400D02*
G01*
X147941700Y-81218500D01*
X147946600Y-81214400D01*
X148140800Y-81193700D01*
X148139000Y-81227400D01*
G37*
G36*
X148642300Y-81145300D02*
G01*
X148627400Y-81171700D01*
X148613600Y-81195500D01*
X148657200Y-81198000D01*
X148697700Y-81202000D01*
X148692200Y-81252400D01*
X148337000Y-81236300D01*
X148332700Y-81204100D01*
X148415500Y-81195500D01*
X148511200Y-81193300D01*
X148535500Y-81153800D01*
X148536800Y-81151400D01*
X148645400Y-81139800D01*
X148642300Y-81145300D01*
G37*
G36*
X149174300Y-81163500D02*
G01*
X149260200Y-81192500D01*
X149307300Y-81236100D01*
X149307700Y-81236600D01*
X149194400Y-81264000D01*
X149157900Y-81250900D01*
X149145600Y-81248900D01*
X149133700Y-81248600D01*
X149048500Y-81268400D01*
X148911300Y-81262200D01*
X148936300Y-81242900D01*
X148973400Y-81214200D01*
X149095400Y-81159200D01*
X149174300Y-81163500D01*
G37*
G36*
X149947900Y-81099100D02*
G01*
X149924200Y-81127500D01*
X149944400Y-81137200D01*
X149963100Y-81153600D01*
X149996800Y-81211000D01*
X149996800Y-81248300D01*
X149981500Y-81328700D01*
X149923800Y-81430000D01*
X149912200Y-81450600D01*
X149879200Y-81507800D01*
X149860000Y-81539400D01*
X149849100Y-81557500D01*
X149844600Y-81566400D01*
X149844300Y-81568800D01*
X149844200Y-81572100D01*
X149843300Y-81581300D01*
X149841100Y-81589500D01*
X149835700Y-81612700D01*
X149846400Y-81635500D01*
X149854200Y-81644700D01*
X149867500Y-81646900D01*
X149899500Y-81648000D01*
X149945600Y-81619100D01*
X150015000Y-81561800D01*
X150083200Y-81502600D01*
X150141800Y-81569200D01*
X150072400Y-81629500D01*
X150001700Y-81687900D01*
X149930500Y-81732600D01*
X149876100Y-81735800D01*
X149870200Y-81735800D01*
X149864400Y-81735600D01*
X149812500Y-81726500D01*
X149775100Y-81688500D01*
X149743500Y-81611700D01*
X149755200Y-81567000D01*
X149755600Y-81565300D01*
X149760400Y-81532300D01*
X149784100Y-81493400D01*
X149802800Y-81462500D01*
X149834800Y-81406800D01*
X149840700Y-81396400D01*
X149846600Y-81386100D01*
X149894400Y-81302100D01*
X149908000Y-81248300D01*
X149908000Y-81232400D01*
X149899300Y-81215400D01*
X149879700Y-81205300D01*
X149858500Y-81206800D01*
X149856500Y-81209200D01*
X149854600Y-81211500D01*
X149841200Y-81227700D01*
X149827900Y-81244000D01*
X149737600Y-81347700D01*
X149681400Y-81400600D01*
X149659100Y-81421500D01*
X149635600Y-81445000D01*
X149568600Y-81513700D01*
X149475200Y-81587600D01*
X149422000Y-81624300D01*
X149320200Y-81679100D01*
X149233400Y-81721800D01*
X149166400Y-81740900D01*
X149050600Y-81755600D01*
X148903100Y-81708100D01*
X148862900Y-81669000D01*
X148846900Y-81649900D01*
X148834500Y-81630100D01*
X148789400Y-81647200D01*
X148766200Y-81656300D01*
X148655600Y-81701500D01*
X148604500Y-81724600D01*
X148590200Y-81731600D01*
X148577200Y-81738100D01*
X148518600Y-81767400D01*
X148463100Y-81776000D01*
X148446500Y-81775300D01*
X148429000Y-81771400D01*
X148383300Y-81752600D01*
X148360300Y-81729400D01*
X148324500Y-81658300D01*
X148331200Y-81578900D01*
X148336200Y-81533100D01*
X148360500Y-81450200D01*
X148362300Y-81445200D01*
X148364500Y-81439800D01*
X148343900Y-81451300D01*
X148319800Y-81464500D01*
X148223400Y-81516800D01*
X148131200Y-81584500D01*
X148097600Y-81635000D01*
X148059900Y-81673300D01*
X148000000Y-81734100D01*
X147911400Y-81771600D01*
X147879800Y-81778100D01*
X147846300Y-81779400D01*
X147796200Y-81776700D01*
X147742700Y-81763200D01*
X147661200Y-81723600D01*
X147626800Y-81684600D01*
X147659800Y-81654800D01*
X147692700Y-81625000D01*
X147717700Y-81653400D01*
X147767400Y-81677900D01*
X147834300Y-81693000D01*
X147890100Y-81685400D01*
X147947100Y-81661300D01*
X147996500Y-81611100D01*
X148038400Y-81568600D01*
X148064200Y-81517200D01*
X148073400Y-81474700D01*
X148066900Y-81425400D01*
X148063400Y-81398400D01*
X148060500Y-81366100D01*
X148059200Y-81351400D01*
X148057300Y-81333400D01*
X148053100Y-81292400D01*
X148050400Y-81242900D01*
X147661800Y-81569800D01*
X147356500Y-81791700D01*
X147336700Y-81802400D01*
X147299200Y-81808400D01*
X147283700Y-81807500D01*
X147267400Y-81802100D01*
X147227000Y-81773000D01*
X147212300Y-81730700D01*
X147090700Y-81795900D01*
X146978600Y-81808700D01*
X146890500Y-81763700D01*
X146829100Y-81683000D01*
X146825300Y-81671500D01*
X146822300Y-81658800D01*
X146821100Y-81653700D01*
X146819600Y-81647300D01*
X146762900Y-81690900D01*
X146702000Y-81726500D01*
X146679300Y-81738300D01*
X146666100Y-81743600D01*
X146652000Y-81749400D01*
X146618400Y-81765500D01*
X146599800Y-81774800D01*
X146584600Y-81782600D01*
X146540000Y-81805500D01*
X146502900Y-81811400D01*
X146491900Y-81810900D01*
X146480200Y-81808500D01*
X146437000Y-81793200D01*
X146408100Y-81762000D01*
X146374700Y-81705200D01*
X146377000Y-81656500D01*
X146382500Y-81619600D01*
X146420500Y-81531800D01*
X146457900Y-81455500D01*
X146484600Y-81415100D01*
X146515200Y-81375700D01*
X146525000Y-81347500D01*
X146528600Y-81335400D01*
X146522400Y-81312200D01*
X146512000Y-81303800D01*
X146501600Y-81301300D01*
X146490800Y-81300400D01*
X146475100Y-81308300D01*
X146468400Y-81311800D01*
X146462200Y-81314600D01*
X146435000Y-81328000D01*
X146411800Y-81343600D01*
X146403200Y-81349500D01*
X146394400Y-81355100D01*
X146374200Y-81367700D01*
X146360200Y-81375500D01*
X146335700Y-81389400D01*
X146270400Y-81437600D01*
X146256600Y-81447800D01*
X146239100Y-81460200D01*
X146198800Y-81488900D01*
X146154600Y-81524100D01*
X146116100Y-81574900D01*
X146053700Y-81692100D01*
X146051600Y-81696700D01*
X146049600Y-81701300D01*
X146030800Y-81742800D01*
X146021800Y-81791900D01*
X145977400Y-81791200D01*
X145933000Y-81790400D01*
X145944700Y-81717800D01*
X145968700Y-81664700D01*
X145970600Y-81660600D01*
X145972400Y-81656400D01*
X146051700Y-81510500D01*
X146088100Y-81465100D01*
X146093900Y-81457900D01*
X146099800Y-81450700D01*
X146117700Y-81429200D01*
X146129200Y-81407100D01*
X146141600Y-81378800D01*
X146140000Y-81329700D01*
X146130200Y-81299300D01*
X146123200Y-81291400D01*
X146111300Y-81295200D01*
X146080100Y-81309800D01*
X146040400Y-81330700D01*
X146009700Y-81349700D01*
X146002100Y-81354300D01*
X145994500Y-81359000D01*
X145956300Y-81381300D01*
X145933600Y-81392800D01*
X145919200Y-81400100D01*
X145901800Y-81410100D01*
X145847800Y-81446900D01*
X145783400Y-81509500D01*
X145688400Y-81602600D01*
X145627700Y-81699800D01*
X145601900Y-81751500D01*
X145592700Y-81785700D01*
X145503900Y-81785700D01*
X145508400Y-81748100D01*
X145526000Y-81706300D01*
X145519200Y-81710700D01*
X145512100Y-81715300D01*
X145457100Y-81750400D01*
X145437300Y-81759800D01*
X145419400Y-81768100D01*
X145350200Y-81808700D01*
X145302200Y-81837600D01*
X145253200Y-81847600D01*
X145234000Y-81846000D01*
X145215200Y-81836700D01*
X145187400Y-81809900D01*
X145175300Y-81770500D01*
X145172100Y-81758700D01*
X145169500Y-81746900D01*
X145152800Y-81759500D01*
X145127900Y-81774900D01*
X145065400Y-81809600D01*
X145033300Y-81819000D01*
X145025700Y-81821100D01*
X145016300Y-81824100D01*
X144978000Y-81834200D01*
X144944000Y-81835600D01*
X144895300Y-81831900D01*
X144869600Y-81824700D01*
X144825100Y-81812400D01*
X144776800Y-81773900D01*
X144757100Y-81747600D01*
X144744600Y-81714800D01*
X144677400Y-81742600D01*
X144610100Y-81768700D01*
X144469100Y-81819400D01*
X144371800Y-81837300D01*
X144336330Y-81841600D01*
X144306620Y-81842400D01*
X144268330Y-81840700D01*
X144233860Y-81832000D01*
X144161530Y-81800100D01*
X144126980Y-81770200D01*
X144106730Y-81752600D01*
X144081610Y-81726000D01*
X143997640Y-81759500D01*
X143913680Y-81793000D01*
X143897260Y-81751700D01*
X143880800Y-81710500D01*
X143958120Y-81679600D01*
X144035460Y-81648800D01*
X144028670Y-81627400D01*
X144025060Y-81603600D01*
X144027620Y-81529200D01*
X144052860Y-81469900D01*
X144107140Y-81374900D01*
X144150080Y-81334200D01*
X144193630Y-81292800D01*
X144253820Y-81261800D01*
X144344010Y-81319200D01*
X144309810Y-81332200D01*
X144246540Y-81365000D01*
X144211220Y-81398600D01*
X144176260Y-81431700D01*
X144134590Y-81504600D01*
X144115050Y-81550600D01*
X144113320Y-81593800D01*
X144115010Y-81605200D01*
X144118080Y-81615900D01*
X144118070Y-81615800D01*
X144162000Y-81598400D01*
X144205920Y-81580900D01*
X144332770Y-81517700D01*
X144459600Y-81454500D01*
X144476100Y-81448400D01*
X144495800Y-81426800D01*
X144504500Y-81379600D01*
X144494800Y-81360800D01*
X144466600Y-81330200D01*
X144449600Y-81324900D01*
X144572500Y-81318400D01*
X144573100Y-81319000D01*
X144595900Y-81364000D01*
X144572100Y-81472200D01*
X144530200Y-81521100D01*
X144490600Y-81537700D01*
X144365600Y-81600200D01*
X144240500Y-81662600D01*
X144205680Y-81676500D01*
X144170870Y-81690400D01*
X144178380Y-81697200D01*
X144185170Y-81703100D01*
X144211190Y-81725600D01*
X144259630Y-81747000D01*
X144294370Y-81755200D01*
X144359700Y-81749300D01*
X144447100Y-81733100D01*
X144578600Y-81685700D01*
X144648900Y-81658400D01*
X144718900Y-81629400D01*
X144715600Y-81610800D01*
X144714300Y-81590500D01*
X144721200Y-81516200D01*
X144738400Y-81474200D01*
X144785000Y-81389800D01*
X144837100Y-81338500D01*
X144873700Y-81302500D01*
X145025100Y-81294500D01*
X145089800Y-81310500D01*
X145051700Y-81312800D01*
X144990500Y-81333200D01*
X144939200Y-81362600D01*
X144899500Y-81401700D01*
X144855300Y-81445200D01*
X144820600Y-81507900D01*
X144807700Y-81539300D01*
X144803100Y-81588100D01*
X144806900Y-81622400D01*
X144821600Y-81665800D01*
X144833800Y-81701500D01*
X144842600Y-81714400D01*
X144864400Y-81731200D01*
X144893400Y-81739200D01*
X144927100Y-81748500D01*
X144988400Y-81739900D01*
X145000000Y-81736200D01*
X145009400Y-81733600D01*
X145030800Y-81727500D01*
X145082900Y-81698400D01*
X145118700Y-81675100D01*
X145134200Y-81658800D01*
X145143400Y-81649200D01*
X145154700Y-81638900D01*
X145186900Y-81602900D01*
X145201300Y-81570400D01*
X145237700Y-81490800D01*
X145290800Y-81380400D01*
X145251600Y-81347000D01*
X145192900Y-81321700D01*
X145148100Y-81310800D01*
X145113600Y-81309800D01*
X145100000Y-81310000D01*
X145099800Y-81309900D01*
X145329200Y-81296300D01*
X145330800Y-81297500D01*
X145331400Y-81296200D01*
X145426400Y-81290600D01*
X145431500Y-81293100D01*
X145423700Y-81309300D01*
X145415900Y-81325500D01*
X145334100Y-81494700D01*
X145282900Y-81605500D01*
X145267500Y-81639800D01*
X145233600Y-81685300D01*
X145241200Y-81684700D01*
X145248800Y-81684200D01*
X145252300Y-81714600D01*
X145260200Y-81744300D01*
X145261800Y-81749600D01*
X145263600Y-81755300D01*
X145283200Y-81745300D01*
X145302300Y-81733900D01*
X145379000Y-81688900D01*
X145400000Y-81679200D01*
X145413200Y-81673100D01*
X145463700Y-81640900D01*
X145542500Y-81589400D01*
X145602300Y-81544800D01*
X145664000Y-81496600D01*
X145691300Y-81463900D01*
X145705800Y-81440200D01*
X145719400Y-81406600D01*
X145728600Y-81383800D01*
X145741900Y-81352500D01*
X145756400Y-81322100D01*
X145773500Y-81291700D01*
X145786100Y-81269300D01*
X145885000Y-81263400D01*
X145881500Y-81280800D01*
X145850900Y-81335300D01*
X145850000Y-81336800D01*
X145849200Y-81338300D01*
X145852600Y-81336100D01*
X145856100Y-81334000D01*
X145876600Y-81322100D01*
X145893600Y-81313500D01*
X145914400Y-81303100D01*
X145948500Y-81283100D01*
X145955800Y-81278600D01*
X145963100Y-81274100D01*
X145990500Y-81257200D01*
X146202800Y-81244600D01*
X146226200Y-81308600D01*
X146230900Y-81333200D01*
X146231200Y-81356000D01*
X146290000Y-81313200D01*
X146316700Y-81298200D01*
X146329000Y-81291200D01*
X146346800Y-81280200D01*
X146354600Y-81275200D01*
X146362300Y-81270000D01*
X146389900Y-81251400D01*
X146427300Y-81233000D01*
X146430500Y-81231400D01*
X146431200Y-81231100D01*
X146535400Y-81224900D01*
X146556800Y-81226900D01*
X146592800Y-81258000D01*
X146621100Y-81330200D01*
X146610000Y-81373100D01*
X146591300Y-81422600D01*
X146554100Y-81470500D01*
X146540000Y-81491100D01*
X146501100Y-81569300D01*
X146467800Y-81645800D01*
X146465200Y-81667400D01*
X146463200Y-81683900D01*
X146479500Y-81709300D01*
X146484600Y-81716200D01*
X146501900Y-81722400D01*
X146516900Y-81717600D01*
X146544000Y-81703700D01*
X146559700Y-81695600D01*
X146579000Y-81685900D01*
X146616600Y-81667900D01*
X146632700Y-81661400D01*
X146642800Y-81657300D01*
X146659700Y-81648500D01*
X146715500Y-81615700D01*
X146767200Y-81575500D01*
X146794500Y-81552700D01*
X146806000Y-81539700D01*
X146819000Y-81520500D01*
X146827300Y-81497800D01*
X146834500Y-81478200D01*
X146846200Y-81451700D01*
X146871800Y-81403700D01*
X146904000Y-81358600D01*
X146942400Y-81304800D01*
X146981600Y-81266100D01*
X147126900Y-81279500D01*
X147070100Y-81308000D01*
X147041600Y-81331300D01*
X147010600Y-81362000D01*
X146976400Y-81410100D01*
X146947000Y-81451300D01*
X146926500Y-81489700D01*
X146917100Y-81511000D01*
X146910700Y-81528300D01*
X146902600Y-81550300D01*
X146890500Y-81573500D01*
X146893700Y-81583500D01*
X146897700Y-81596800D01*
X146905300Y-81623800D01*
X146908800Y-81638800D01*
X146910400Y-81646000D01*
X146912500Y-81652300D01*
X146949900Y-81693200D01*
X146998300Y-81722200D01*
X147084500Y-81700900D01*
X147174200Y-81648600D01*
X147193400Y-81627000D01*
X147221900Y-81583800D01*
X147263500Y-81516300D01*
X147290400Y-81464500D01*
X147308300Y-81428800D01*
X147315000Y-81413500D01*
X147321400Y-81399100D01*
X147332200Y-81381500D01*
X147339000Y-81371200D01*
X147345100Y-81362400D01*
X147356300Y-81346100D01*
X147357700Y-81340400D01*
X147353900Y-81327700D01*
X147346900Y-81319400D01*
X147338200Y-81311000D01*
X147295300Y-81294500D01*
X147289100Y-81292100D01*
X147282900Y-81289800D01*
X147272800Y-81286300D01*
X147482500Y-81263900D01*
X147505300Y-81275700D01*
X147418600Y-81443900D01*
X147332000Y-81612200D01*
X147329400Y-81614700D01*
X147326800Y-81617200D01*
X147305300Y-81640100D01*
X147294800Y-81686100D01*
X147297000Y-81706000D01*
X147302100Y-81719100D01*
X147306400Y-81717700D01*
X147314300Y-81713600D01*
X147647300Y-81467100D01*
X147941700Y-81218500D01*
X148139000Y-81227400D01*
X148137800Y-81250000D01*
X148145600Y-81324100D01*
X148147700Y-81343800D01*
X148149100Y-81359900D01*
X148151700Y-81389300D01*
X148155000Y-81413900D01*
X148157600Y-81434400D01*
X148159400Y-81454400D01*
X148221500Y-81416900D01*
X148277500Y-81386400D01*
X148305000Y-81371500D01*
X148327500Y-81358800D01*
X148340900Y-81350900D01*
X148354300Y-81343100D01*
X148396100Y-81318700D01*
X148416000Y-81304000D01*
X148428000Y-81294300D01*
X148439100Y-81284200D01*
X148388600Y-81287200D01*
X148344400Y-81292100D01*
X148338600Y-81248100D01*
X148337000Y-81236300D01*
X148692200Y-81252400D01*
X148688000Y-81290200D01*
X148626500Y-81284600D01*
X148558300Y-81282500D01*
X148535700Y-81312000D01*
X148511200Y-81337900D01*
X148474900Y-81406500D01*
X148444200Y-81479900D01*
X148423800Y-81549100D01*
X148419700Y-81586300D01*
X148415500Y-81645200D01*
X148427400Y-81671200D01*
X148435300Y-81679000D01*
X148452300Y-81685700D01*
X148479800Y-81687100D01*
X148537600Y-81658700D01*
X148551000Y-81652000D01*
X148565800Y-81644700D01*
X148619900Y-81620200D01*
X148732800Y-81574100D01*
X148757000Y-81564500D01*
X148803900Y-81546800D01*
X148798300Y-81502500D01*
X148799700Y-81473600D01*
X148817800Y-81381400D01*
X148904800Y-81267300D01*
X148911300Y-81262200D01*
X149048500Y-81268400D01*
X148990600Y-81313100D01*
X148958100Y-81339400D01*
X148899000Y-81421500D01*
X148888200Y-81480200D01*
X148887500Y-81493100D01*
X148889000Y-81514900D01*
X148919600Y-81503200D01*
X148950100Y-81491300D01*
X149019500Y-81464300D01*
X149090700Y-81438700D01*
X149154400Y-81416700D01*
X149245000Y-81365700D01*
X149276600Y-81342200D01*
X149277700Y-81337700D01*
X149277800Y-81336500D01*
X149277900Y-81335500D01*
X149273500Y-81330600D01*
X149268000Y-81324800D01*
X149256300Y-81312400D01*
X149240200Y-81294400D01*
X149216800Y-81272000D01*
X149194400Y-81264000D01*
X149307700Y-81236600D01*
X149321800Y-81252500D01*
X149332400Y-81263700D01*
X149362100Y-81295000D01*
X149366100Y-81345800D01*
X149344300Y-81404700D01*
X149294000Y-81439700D01*
X149189500Y-81498600D01*
X149122100Y-81521800D01*
X149050500Y-81547500D01*
X148982400Y-81574000D01*
X148951100Y-81586200D01*
X148919700Y-81598300D01*
X148924100Y-81604100D01*
X148929000Y-81609700D01*
X148966200Y-81642900D01*
X149074900Y-81665400D01*
X149146000Y-81654500D01*
X149200700Y-81639000D01*
X149281100Y-81599500D01*
X149375000Y-81548900D01*
X149423700Y-81515300D01*
X149508300Y-81448500D01*
X149572100Y-81383100D01*
X149597000Y-81358100D01*
X149620600Y-81336000D01*
X149674700Y-81285100D01*
X149759500Y-81187400D01*
X149772800Y-81171300D01*
X149786100Y-81155200D01*
X149821000Y-81112800D01*
X149965900Y-81077800D01*
X149947900Y-81099100D01*
G37*
G36*
X149934100Y-81035300D02*
G01*
X149883400Y-81038000D01*
X149893400Y-81026000D01*
X149921200Y-81024400D01*
X149934100Y-81035300D01*
G37*
G36*
X145025100Y-81294500D02*
G01*
X144873700Y-81302500D01*
X144884200Y-81292200D01*
X144923800Y-81269400D01*
X145025100Y-81294500D01*
G37*
G36*
X144460200Y-81235200D02*
G01*
X144513300Y-81251800D01*
X144572500Y-81318400D01*
X144449600Y-81324900D01*
X144433800Y-81319900D01*
X144412400Y-81314600D01*
X144392000Y-81313700D01*
X144344010Y-81319200D01*
X144253820Y-81261800D01*
X144278130Y-81249300D01*
X144345950Y-81223500D01*
X144460200Y-81235200D01*
G37*
G36*
X145091600Y-81310400D02*
G01*
X145089800Y-81310500D01*
X144923800Y-81269400D01*
X144950700Y-81254000D01*
X145099300Y-81309700D01*
X145091600Y-81310400D01*
G37*
G36*
X145320200Y-81289700D02*
G01*
X145329200Y-81296300D01*
X145099800Y-81309900D01*
X145099300Y-81309700D01*
X145320200Y-81289700D01*
G37*
G36*
X149921200Y-81024400D02*
G01*
X149893400Y-81026000D01*
X149905800Y-81011300D01*
X149921200Y-81024400D01*
G37*
G36*
X146535400Y-81224900D02*
G01*
X146431200Y-81231100D01*
X146434000Y-81229600D01*
X146456800Y-81217700D01*
X146535400Y-81224900D01*
G37*
G36*
X146198900Y-81233900D02*
G01*
X146202800Y-81244600D01*
X145990500Y-81257200D01*
X145996400Y-81253600D01*
X146040600Y-81230200D01*
X146056900Y-81223000D01*
X146162200Y-81213400D01*
X146198900Y-81233900D01*
G37*
G36*
X145885000Y-81263400D02*
G01*
X145786100Y-81269300D01*
X145792500Y-81258000D01*
X145797000Y-81246500D01*
X145890200Y-81238100D01*
X145885000Y-81263400D01*
G37*
G36*
X145426400Y-81290600D02*
G01*
X145331400Y-81296200D01*
X145333300Y-81292200D01*
X145335200Y-81288300D01*
X145408100Y-81281700D01*
X145426400Y-81290600D01*
G37*
G36*
X145090000Y-81310600D02*
G01*
X145051700Y-81312800D01*
X145089800Y-81310500D01*
X145090000Y-81310600D01*
G37*
G36*
X145090000Y-81310600D02*
G01*
X145089800Y-81310500D01*
X145091600Y-81310400D01*
X145090000Y-81310600D01*
G37*
G36*
X148736200Y-80983900D02*
G01*
X148687100Y-81067700D01*
X148663800Y-81107500D01*
X148645400Y-81139800D01*
X148536800Y-81151400D01*
X148564800Y-81101900D01*
X148586700Y-81063400D01*
X148610500Y-81022800D01*
X148629800Y-80989800D01*
X148738300Y-80980000D01*
X148736200Y-80983900D01*
G37*
G36*
X148140200Y-81109400D02*
G01*
X148168400Y-81143700D01*
X148159000Y-81151500D01*
X148149600Y-81159300D01*
X148146100Y-81162200D01*
X148142300Y-81165400D01*
X148140800Y-81193700D01*
X147946600Y-81214400D01*
X148030800Y-81143300D01*
X148046900Y-81129700D01*
X148060800Y-81118000D01*
X148061000Y-81117000D01*
X148061200Y-81116000D01*
X148061900Y-81116200D01*
X148062700Y-81116400D01*
X148080000Y-81101700D01*
X148092700Y-81091200D01*
X148102400Y-81083200D01*
X148112000Y-81075100D01*
X148140200Y-81109400D01*
G37*
G36*
X146522900Y-81215100D02*
G01*
X146551200Y-81222000D01*
X146556800Y-81226900D01*
X146456800Y-81217700D01*
X146465900Y-81212900D01*
X146522900Y-81215100D01*
G37*
G36*
X147201300Y-81178500D02*
G01*
X147203000Y-81178600D01*
X147204700Y-81178600D01*
X147235900Y-81180000D01*
X147314400Y-81206800D01*
X147320600Y-81209100D01*
X147326700Y-81211400D01*
X147381000Y-81232000D01*
X147413200Y-81260500D01*
X147419800Y-81247800D01*
X147426400Y-81235000D01*
X147482500Y-81263900D01*
X147272800Y-81286300D01*
X147218100Y-81267600D01*
X147203600Y-81267400D01*
X147198700Y-81267300D01*
X147193900Y-81267000D01*
X147163400Y-81265600D01*
X147126900Y-81279500D01*
X146981600Y-81266100D01*
X146983300Y-81264400D01*
X147023600Y-81231700D01*
X147093500Y-81197200D01*
X147146500Y-81177600D01*
X147201300Y-81178500D01*
G37*
G36*
X144950700Y-81254000D02*
G01*
X144953900Y-81252200D01*
X145036300Y-81224700D01*
X145084800Y-81221900D01*
X145133100Y-81219100D01*
X145220000Y-81237200D01*
X145283900Y-81263100D01*
X145320200Y-81289700D01*
X145099300Y-81309700D01*
X144950700Y-81254000D01*
G37*
G36*
X148744800Y-80872800D02*
G01*
X148784400Y-80892700D01*
X148738300Y-80980000D01*
X148629800Y-80989800D01*
X148658600Y-80940800D01*
X148705100Y-80852900D01*
X148744800Y-80872800D01*
G37*
G36*
X146146700Y-81204800D02*
G01*
X146162200Y-81213400D01*
X146056900Y-81223000D01*
X146107800Y-81200300D01*
X146146700Y-81204800D01*
G37*
G36*
X145846400Y-81234400D02*
G01*
X145890800Y-81235000D01*
X145890200Y-81238100D01*
X145797000Y-81246500D01*
X145802100Y-81233700D01*
X145846400Y-81234400D01*
G37*
G36*
X145408100Y-81281700D02*
G01*
X145335200Y-81288300D01*
X145335900Y-81286800D01*
X145343800Y-81270700D01*
X145351600Y-81254400D01*
X145408100Y-81281700D01*
G37*
G36*
X145100000Y-81310000D02*
G01*
X145090000Y-81310600D01*
X145099300Y-81309700D01*
X145100000Y-81310000D01*
G37*
G36*
X150488200Y-89024600D02*
G01*
X150491900Y-89047800D01*
X150366800Y-89074100D01*
X150241400Y-89098600D01*
X150251200Y-89165500D01*
X150261000Y-89232500D01*
X150380500Y-89209300D01*
X150499700Y-89184300D01*
X150503400Y-89206900D01*
X150507100Y-89229500D01*
X150387400Y-89254500D01*
X150267400Y-89277800D01*
X150278600Y-89354400D01*
X150289900Y-89430900D01*
X150424900Y-89404600D01*
X150559600Y-89376100D01*
X150563400Y-89398900D01*
X150567300Y-89421600D01*
X150391900Y-89458600D01*
X150215800Y-89491900D01*
X150185600Y-89279500D01*
X150156000Y-89066900D01*
X150320500Y-89035800D01*
X150484400Y-89001400D01*
X150488200Y-89024600D01*
G37*
G36*
X149949500Y-89142800D02*
G01*
X149730300Y-89178100D01*
X149728300Y-89178300D01*
X149636100Y-89148300D01*
X149719700Y-89134800D01*
X149874900Y-89121100D01*
X149949500Y-89142800D01*
G37*
G36*
X149974500Y-89150000D02*
G01*
X150016100Y-89171500D01*
X150070600Y-89239500D01*
X150081100Y-89287900D01*
X150083800Y-89339200D01*
X150049600Y-89430400D01*
X150013100Y-89468600D01*
X149968000Y-89504200D01*
X149831100Y-89556900D01*
X149742600Y-89572400D01*
X149660000Y-89582900D01*
X149594100Y-89587400D01*
X149572800Y-89377200D01*
X149552300Y-89166900D01*
X149628500Y-89149600D01*
X149636100Y-89148300D01*
X149728300Y-89178300D01*
X149671600Y-89187600D01*
X149635800Y-89197100D01*
X149653300Y-89365700D01*
X149671100Y-89534200D01*
X149706800Y-89532300D01*
X149753700Y-89526000D01*
X149873000Y-89500200D01*
X149974400Y-89419000D01*
X150000200Y-89346300D01*
X149997600Y-89304300D01*
X149978700Y-89235000D01*
X149844100Y-89169200D01*
X149730300Y-89178100D01*
X149949500Y-89142800D01*
X149974500Y-89150000D01*
G37*
G36*
X149289600Y-89259300D02*
G01*
X149219500Y-89280600D01*
X149204800Y-89249100D01*
X149203100Y-89249300D01*
X149141900Y-89235100D01*
X149154500Y-89203900D01*
X149202600Y-89199500D01*
X149250700Y-89194900D01*
X149289600Y-89259300D01*
G37*
G36*
X149203100Y-89249300D02*
G01*
X149191900Y-89289000D01*
X149177400Y-89329500D01*
X149151300Y-89394300D01*
X149125100Y-89459000D01*
X149219700Y-89450600D01*
X149314200Y-89441200D01*
X149278500Y-89382700D01*
X149243200Y-89324200D01*
X149221600Y-89285000D01*
X149219500Y-89280600D01*
X149289600Y-89259300D01*
X149373600Y-89398400D01*
X149501100Y-89600000D01*
X149457400Y-89605200D01*
X149413700Y-89610100D01*
X149374000Y-89546500D01*
X149334700Y-89482700D01*
X149223200Y-89494000D01*
X149111500Y-89503900D01*
X149083400Y-89574200D01*
X149055100Y-89644300D01*
X149012400Y-89647700D01*
X148969900Y-89650900D01*
X149063900Y-89427800D01*
X149141900Y-89235100D01*
X149203100Y-89249300D01*
G37*
G36*
X154295800Y-65617290D02*
G01*
X154340300Y-65652040D01*
X154368100Y-65755540D01*
X154346800Y-65807930D01*
X154079100Y-66271730D01*
X154044300Y-66316300D01*
X153940800Y-66344030D01*
X153888400Y-66322810D01*
X153843800Y-66288040D01*
X153816100Y-66184530D01*
X153837300Y-66132130D01*
X154105100Y-65668370D01*
X154139800Y-65623790D01*
X154243400Y-65596050D01*
X154295800Y-65617290D01*
G37*
G36*
X158853600Y-70165340D02*
G01*
X158888400Y-70209920D01*
X158909600Y-70262310D01*
X158881900Y-70365830D01*
X158837300Y-70400600D01*
X158373500Y-70668360D01*
X158321100Y-70689580D01*
X158217600Y-70661840D01*
X158182900Y-70617240D01*
X158161600Y-70564860D01*
X158189400Y-70461350D01*
X158233900Y-70426600D01*
X158697700Y-70158840D01*
X158750100Y-70137600D01*
X158853600Y-70165340D01*
G37*
G36*
X158373500Y-82298800D02*
G01*
X158837300Y-82566600D01*
X158881900Y-82601300D01*
X158909600Y-82704900D01*
X158888400Y-82757200D01*
X158853600Y-82801800D01*
X158750100Y-82829600D01*
X158697700Y-82808300D01*
X158233900Y-82540600D01*
X158189400Y-82505800D01*
X158161600Y-82402300D01*
X158182900Y-82349900D01*
X158217600Y-82305300D01*
X158321100Y-82277600D01*
X158373500Y-82298800D01*
G37*
G36*
X154044300Y-86650900D02*
G01*
X154079100Y-86695400D01*
X154346800Y-87159200D01*
X154368100Y-87211600D01*
X154340300Y-87315100D01*
X154295800Y-87349900D01*
X154243400Y-87371100D01*
X154139800Y-87343400D01*
X154105100Y-87298800D01*
X153837300Y-86835000D01*
X153816100Y-86782600D01*
X153843800Y-86679100D01*
X153888400Y-86644300D01*
X153940800Y-86623100D01*
X154044300Y-86650900D01*
G37*
G36*
X148078100Y-88224000D02*
G01*
X148153800Y-88299800D01*
X148161700Y-88355800D01*
X148161700Y-88891300D01*
X148153800Y-88947300D01*
X148078100Y-89023100D01*
X148022100Y-89030900D01*
X147966100Y-89023100D01*
X147890300Y-88947300D01*
X147882500Y-88891300D01*
X147882500Y-88355800D01*
X147890300Y-88299800D01*
X147966100Y-88224000D01*
X148022100Y-88216200D01*
X148078100Y-88224000D01*
G37*
G36*
X142155740Y-86644300D02*
G01*
X142200330Y-86679100D01*
X142228080Y-86782600D01*
X142206860Y-86835000D01*
X141939100Y-87298800D01*
X141904330Y-87343400D01*
X141800810Y-87371100D01*
X141748420Y-87349900D01*
X141703850Y-87315100D01*
X141676100Y-87211600D01*
X141697340Y-87159200D01*
X141965100Y-86695400D01*
X141999850Y-86650900D01*
X142103350Y-86623100D01*
X142155740Y-86644300D01*
G37*
G36*
X137826550Y-82305300D02*
G01*
X137861320Y-82349900D01*
X137882540Y-82402300D01*
X137854820Y-82505800D01*
X137810240Y-82540600D01*
X137346440Y-82808300D01*
X137294050Y-82829600D01*
X137190550Y-82801800D01*
X137155800Y-82757200D01*
X137134560Y-82704900D01*
X137162300Y-82601300D01*
X137206880Y-82566600D01*
X137670640Y-82298800D01*
X137723040Y-82277600D01*
X137826550Y-82305300D01*
G37*
G36*
X136205870Y-76351800D02*
G01*
X136281630Y-76427600D01*
X136289440Y-76483600D01*
X136281630Y-76539600D01*
X136205870Y-76615300D01*
X136149880Y-76623100D01*
X135614320Y-76623100D01*
X135558340Y-76615300D01*
X135482570Y-76539600D01*
X135474760Y-76483600D01*
X135482570Y-76427600D01*
X135558340Y-76351800D01*
X135614320Y-76344000D01*
X136149880Y-76344000D01*
X136205870Y-76351800D01*
G37*
G36*
X137346440Y-70158840D02*
G01*
X137810240Y-70426600D01*
X137854810Y-70461350D01*
X137882540Y-70564850D01*
X137861320Y-70617240D01*
X137826550Y-70661840D01*
X137723040Y-70689580D01*
X137670640Y-70668360D01*
X137206880Y-70400600D01*
X137162300Y-70365830D01*
X137134560Y-70262310D01*
X137155800Y-70209920D01*
X137190550Y-70165340D01*
X137294050Y-70137600D01*
X137346440Y-70158840D01*
G37*
G36*
X141904330Y-65623790D02*
G01*
X141939100Y-65668370D01*
X142206860Y-66132130D01*
X142228080Y-66184530D01*
X142200330Y-66288040D01*
X142155740Y-66322810D01*
X142103350Y-66344030D01*
X141999850Y-66316310D01*
X141965100Y-66271730D01*
X141697340Y-65807930D01*
X141676100Y-65755550D01*
X141703840Y-65652040D01*
X141748420Y-65617290D01*
X141800810Y-65596050D01*
X141904330Y-65623790D01*
G37*
G36*
X148078100Y-63944060D02*
G01*
X148153800Y-64019820D01*
X148161700Y-64075810D01*
X148161700Y-64611370D01*
X148153800Y-64667360D01*
X148078100Y-64743120D01*
X148022100Y-64750930D01*
X147966100Y-64743120D01*
X147890300Y-64667360D01*
X147882500Y-64611370D01*
X147882500Y-64075810D01*
X147890300Y-64019820D01*
X147966100Y-63944060D01*
X148022100Y-63936250D01*
X148078100Y-63944060D01*
G37*
G36*
X149364400Y-64011990D02*
G01*
X149406500Y-64055920D01*
X149408300Y-64088090D01*
X149336500Y-64772090D01*
X149264500Y-65456100D01*
X149264500Y-65456110D01*
X149256100Y-65487210D01*
X149205700Y-65521420D01*
X149174200Y-65521870D01*
X149143400Y-65514880D01*
X149101300Y-65470940D01*
X149099500Y-65438790D01*
X149171400Y-64754760D01*
X149243300Y-64070740D01*
X149251700Y-64039660D01*
X149302100Y-64005440D01*
X149333600Y-64004980D01*
X149364400Y-64011990D01*
G37*
G36*
X150630800Y-64210440D02*
G01*
X150660700Y-64220610D01*
X150698000Y-64268710D01*
X150696400Y-64300890D01*
X150553400Y-64973650D01*
X150410400Y-65646390D01*
X150398800Y-65676430D01*
X150345100Y-65705190D01*
X150313700Y-65702340D01*
X150283800Y-65692170D01*
X150246500Y-65644070D01*
X150248100Y-65611890D01*
X150391100Y-64939150D01*
X150534100Y-64266390D01*
X150545700Y-64236350D01*
X150599400Y-64207590D01*
X150630800Y-64210440D01*
G37*
G36*
X151899400Y-64550380D02*
G01*
X151928100Y-64563610D01*
X151960200Y-64615350D01*
X151955200Y-64647180D01*
X151742700Y-65301280D01*
X151530100Y-65955430D01*
X151515400Y-65984080D01*
X151459100Y-66007060D01*
X151428100Y-66000940D01*
X151399500Y-65987710D01*
X151367400Y-65935970D01*
X151372300Y-65904140D01*
X151584800Y-65250030D01*
X151797400Y-64595890D01*
X151812100Y-64567240D01*
X151868500Y-64544260D01*
X151899400Y-64550380D01*
G37*
G36*
X153125500Y-65021020D02*
G01*
X153152700Y-65037190D01*
X153179200Y-65092000D01*
X153170900Y-65123150D01*
X152891200Y-65751470D01*
X152611400Y-66379790D01*
X152611400Y-66379780D01*
X152593800Y-66406750D01*
X152535300Y-66423710D01*
X152505200Y-66414390D01*
X152478100Y-66398230D01*
X152451600Y-66343410D01*
X152459800Y-66312260D01*
X152739500Y-65683970D01*
X153019300Y-65055660D01*
X153036900Y-65028680D01*
X153095400Y-65011700D01*
X153125500Y-65021020D01*
G37*
G36*
X155397200Y-66332580D02*
G01*
X155420400Y-66354020D01*
X155434900Y-66413150D01*
X155420400Y-66441910D01*
X155016100Y-66998320D01*
X154611800Y-67554750D01*
X154611800Y-67554740D01*
X154589000Y-67577440D01*
X154528300Y-67581890D01*
X154500700Y-67566490D01*
X154477600Y-67545060D01*
X154463000Y-67485930D01*
X154477600Y-67457200D01*
X154881800Y-66900790D01*
X155286100Y-66344360D01*
X155309000Y-66321650D01*
X155369700Y-66317200D01*
X155397200Y-66332580D01*
G37*
G36*
X156392100Y-67140930D02*
G01*
X156417900Y-67159110D01*
X156438700Y-67182860D01*
X156446900Y-67243170D01*
X156429500Y-67270240D01*
X155509000Y-68292490D01*
X155484000Y-68312680D01*
X155423100Y-68310740D01*
X155397300Y-68292560D01*
X155376500Y-68268820D01*
X155368300Y-68208500D01*
X155385700Y-68181430D01*
X155845900Y-67670310D01*
X156306100Y-67159180D01*
X156331200Y-67138990D01*
X156392100Y-67140930D01*
G37*
G36*
X157322800Y-68066990D02*
G01*
X157346600Y-68087770D01*
X157364700Y-68113560D01*
X157366700Y-68174420D01*
X157346500Y-68199530D01*
X156835400Y-68659750D01*
X156324200Y-69119930D01*
X156324200Y-69119940D01*
X156297200Y-69137420D01*
X156236900Y-69129150D01*
X156213100Y-69108370D01*
X156194900Y-69082580D01*
X156193000Y-69021720D01*
X156213200Y-68996640D01*
X157235400Y-68076200D01*
X157262500Y-68058720D01*
X157322800Y-68066990D01*
G37*
G36*
X158151600Y-69085290D02*
G01*
X158173100Y-69108430D01*
X158188500Y-69135990D01*
X158184000Y-69196720D01*
X158161300Y-69219560D01*
X157604900Y-69623850D01*
X157048500Y-70028100D01*
X157019700Y-70042640D01*
X156960600Y-70028100D01*
X156939200Y-70004960D01*
X156923800Y-69977410D01*
X156928200Y-69916680D01*
X156950900Y-69893830D01*
X157507300Y-69489570D01*
X158063800Y-69085290D01*
X158092500Y-69070750D01*
X158151600Y-69085290D01*
G37*
G36*
X159468500Y-71353020D02*
G01*
X159484700Y-71380130D01*
X159494000Y-71410280D01*
X159477000Y-71468760D01*
X159450000Y-71486390D01*
X158821700Y-71766120D01*
X158193400Y-72045860D01*
X158162200Y-72054110D01*
X158107400Y-72027600D01*
X158091300Y-72000490D01*
X158081900Y-71970350D01*
X158098900Y-71911860D01*
X158125900Y-71894230D01*
X158754200Y-71614510D01*
X159382500Y-71334760D01*
X159413700Y-71326510D01*
X159468500Y-71353020D01*
G37*
G36*
X159942100Y-72577610D02*
G01*
X159955300Y-72606250D01*
X159961400Y-72637200D01*
X159938400Y-72693570D01*
X159909800Y-72708270D01*
X159255600Y-72920800D01*
X158601500Y-73133400D01*
X158569700Y-73138300D01*
X158518000Y-73106200D01*
X158504700Y-73077600D01*
X158498600Y-73046600D01*
X158521600Y-72990200D01*
X158550300Y-72975500D01*
X159204400Y-72762990D01*
X159858500Y-72550440D01*
X159890300Y-72545500D01*
X159942100Y-72577610D01*
G37*
G36*
X160285100Y-73845000D02*
G01*
X160295200Y-73874800D01*
X160298100Y-73906300D01*
X160269300Y-73959900D01*
X160239300Y-73971600D01*
X159566500Y-74114500D01*
X158893800Y-74257600D01*
X158861600Y-74259100D01*
X158813500Y-74221800D01*
X158803300Y-74192000D01*
X158800500Y-74160500D01*
X158829200Y-74106900D01*
X158859300Y-74095200D01*
X159532000Y-73952200D01*
X160204800Y-73809200D01*
X160237000Y-73807600D01*
X160285100Y-73845000D01*
G37*
G36*
X158893800Y-78709600D02*
G01*
X159566500Y-78852600D01*
X160239300Y-78995600D01*
X160269300Y-79007200D01*
X160298100Y-79060900D01*
X160295200Y-79092300D01*
X160285100Y-79122200D01*
X160237000Y-79159500D01*
X160204800Y-79157900D01*
X159532000Y-79014900D01*
X158859300Y-78871900D01*
X158829200Y-78860300D01*
X158800500Y-78806600D01*
X158803300Y-78775200D01*
X158813500Y-78745300D01*
X158861600Y-78708000D01*
X158893800Y-78709600D01*
G37*
G36*
X158601500Y-79833800D02*
G01*
X159255600Y-80046400D01*
X159909800Y-80258900D01*
X159938400Y-80273600D01*
X159961400Y-80330000D01*
X159955300Y-80360900D01*
X159942100Y-80389600D01*
X159890300Y-80421700D01*
X159858500Y-80416700D01*
X159204400Y-80204200D01*
X158550200Y-79991600D01*
X158521600Y-79976900D01*
X158498600Y-79920600D01*
X158504700Y-79889600D01*
X158518000Y-79861000D01*
X158569700Y-79828900D01*
X158601500Y-79833800D01*
G37*
G36*
X158193400Y-80921300D02*
G01*
X158821700Y-81201000D01*
X159450000Y-81480800D01*
X159477000Y-81498400D01*
X159494000Y-81556900D01*
X159484700Y-81587000D01*
X159468500Y-81614100D01*
X159413700Y-81640700D01*
X159382500Y-81632400D01*
X158754200Y-81352700D01*
X158125900Y-81072900D01*
X158098900Y-81055300D01*
X158082000Y-80996800D01*
X158091300Y-80966700D01*
X158107400Y-80939600D01*
X158162300Y-80913000D01*
X158193400Y-80921300D01*
G37*
G36*
X157048500Y-82939100D02*
G01*
X157604900Y-83343300D01*
X158161300Y-83747600D01*
X158184000Y-83770500D01*
X158188500Y-83831200D01*
X158173100Y-83858700D01*
X158151600Y-83881900D01*
X158092500Y-83896400D01*
X158063800Y-83881900D01*
X157507300Y-83477600D01*
X156950900Y-83073300D01*
X156928200Y-83050500D01*
X156923800Y-82989800D01*
X156939200Y-82962200D01*
X156960600Y-82939100D01*
X157019700Y-82924500D01*
X157048500Y-82939100D01*
G37*
G36*
X156324200Y-83847200D02*
G01*
X156835400Y-84307400D01*
X157346500Y-84767600D01*
X157366700Y-84792700D01*
X157364700Y-84853600D01*
X157346600Y-84879400D01*
X157322800Y-84900200D01*
X157262500Y-84908400D01*
X157235400Y-84891000D01*
X156213200Y-83970500D01*
X156193000Y-83945500D01*
X156194900Y-83884600D01*
X156213100Y-83858800D01*
X156236900Y-83838000D01*
X156297200Y-83829800D01*
X156324200Y-83847200D01*
G37*
G36*
X155509000Y-84674700D02*
G01*
X156429500Y-85696900D01*
X156446900Y-85724000D01*
X156438700Y-85784300D01*
X156417900Y-85808000D01*
X156392100Y-85826200D01*
X156331200Y-85828200D01*
X156306100Y-85808000D01*
X155845900Y-85296900D01*
X155385700Y-84785700D01*
X155368300Y-84758700D01*
X155376500Y-84698300D01*
X155397300Y-84674600D01*
X155423100Y-84656400D01*
X155483900Y-84654500D01*
X155509000Y-84674700D01*
G37*
G36*
X154589000Y-85389700D02*
G01*
X154611800Y-85412400D01*
X155016100Y-85968800D01*
X155420400Y-86525200D01*
X155434900Y-86554000D01*
X155420400Y-86613100D01*
X155397200Y-86634600D01*
X155369700Y-86650000D01*
X155309000Y-86645500D01*
X155286100Y-86622800D01*
X154881800Y-86066400D01*
X154477600Y-85510000D01*
X154477600Y-85509900D01*
X154463000Y-85481200D01*
X154477600Y-85422100D01*
X154500700Y-85400600D01*
X154528300Y-85385300D01*
X154589000Y-85389700D01*
G37*
G36*
X152593800Y-86560400D02*
G01*
X152611400Y-86587400D01*
X152891200Y-87215700D01*
X153170900Y-87844000D01*
X153179200Y-87875200D01*
X153152700Y-87930000D01*
X153125500Y-87946100D01*
X153095400Y-87955500D01*
X153036900Y-87938500D01*
X153019300Y-87911500D01*
X152739500Y-87283200D01*
X152459800Y-86654900D01*
X152451600Y-86623700D01*
X152478100Y-86568900D01*
X152505200Y-86552800D01*
X152535300Y-86543400D01*
X152593800Y-86560400D01*
G37*
G36*
X151515400Y-86983100D02*
G01*
X151530100Y-87011700D01*
X151742700Y-87665900D01*
X151955200Y-88320000D01*
X151960200Y-88351800D01*
X151928100Y-88403500D01*
X151899400Y-88416800D01*
X151868500Y-88422900D01*
X151812100Y-88399900D01*
X151797400Y-88371300D01*
X151584800Y-87717100D01*
X151372300Y-87063000D01*
X151367400Y-87031200D01*
X151399500Y-86979500D01*
X151428100Y-86966200D01*
X151459100Y-86960100D01*
X151515400Y-86983100D01*
G37*
G36*
X150398800Y-87290700D02*
G01*
X150410400Y-87320800D01*
X150553400Y-87993500D01*
X150696400Y-88666300D01*
X150698000Y-88698400D01*
X150660700Y-88746500D01*
X150630800Y-88756700D01*
X150599400Y-88759600D01*
X150545700Y-88730800D01*
X150534100Y-88700800D01*
X150391100Y-88028000D01*
X150248100Y-87355300D01*
X150246500Y-87323100D01*
X150283800Y-87275000D01*
X150313700Y-87264800D01*
X150345100Y-87262000D01*
X150398800Y-87290700D01*
G37*
G36*
X149205700Y-87445800D02*
G01*
X149256100Y-87480000D01*
X149264500Y-87511100D01*
X149336500Y-88195100D01*
X149408300Y-88879100D01*
X149406600Y-88911200D01*
X149364400Y-88955200D01*
X149333600Y-88962200D01*
X149302100Y-88961700D01*
X149251700Y-88927500D01*
X149243300Y-88896400D01*
X149171400Y-88212400D01*
X149099500Y-87528400D01*
X149101300Y-87496200D01*
X149143400Y-87452300D01*
X149174200Y-87445300D01*
X149205700Y-87445800D01*
G37*
G36*
X146900700Y-87452300D02*
G01*
X146942900Y-87496200D01*
X146944700Y-87528400D01*
X146872800Y-88212400D01*
X146800900Y-88896400D01*
X146792400Y-88927500D01*
X146742100Y-88961700D01*
X146710500Y-88962200D01*
X146679800Y-88955200D01*
X146637600Y-88911200D01*
X146635800Y-88879100D01*
X146707700Y-88195100D01*
X146779600Y-87511100D01*
X146788100Y-87480000D01*
X146838400Y-87445700D01*
X146870000Y-87445300D01*
X146900700Y-87452300D01*
G37*
G36*
X145730500Y-87264800D02*
G01*
X145760300Y-87275000D01*
X145797700Y-87323100D01*
X145796100Y-87355300D01*
X145653100Y-88028000D01*
X145510100Y-88700800D01*
X145498400Y-88730800D01*
X145444800Y-88759600D01*
X145413400Y-88756700D01*
X145383500Y-88746500D01*
X145346200Y-88698400D01*
X145347700Y-88666300D01*
X145490700Y-87993500D01*
X145633700Y-87320800D01*
X145645400Y-87290700D01*
X145699000Y-87262000D01*
X145730500Y-87264800D01*
G37*
G36*
X144616100Y-86966200D02*
G01*
X144644700Y-86979500D01*
X144676800Y-87031200D01*
X144671900Y-87063000D01*
X144459300Y-87717100D01*
X144246770Y-88371300D01*
X144232070Y-88399900D01*
X144175700Y-88422900D01*
X144144750Y-88416800D01*
X144116110Y-88403600D01*
X144084000Y-88351800D01*
X144088940Y-88320000D01*
X144301490Y-87665900D01*
X144514000Y-87011700D01*
X144528700Y-86983100D01*
X144585100Y-86960100D01*
X144616100Y-86966200D01*
G37*
G36*
X143539000Y-86552800D02*
G01*
X143566110Y-86568900D01*
X143592620Y-86623800D01*
X143584370Y-86654900D01*
X143304640Y-87283200D01*
X143024900Y-87911500D01*
X143007270Y-87938500D01*
X142948790Y-87955500D01*
X142918640Y-87946100D01*
X142891530Y-87930000D01*
X142865020Y-87875200D01*
X142873270Y-87844000D01*
X143153020Y-87215700D01*
X143432740Y-86587400D01*
X143450380Y-86560400D01*
X143508860Y-86543500D01*
X143539000Y-86552800D01*
G37*
G36*
X141543460Y-85400700D02*
G01*
X141566600Y-85422100D01*
X141581140Y-85481200D01*
X141566600Y-85510000D01*
X141162350Y-86066400D01*
X140758060Y-86622800D01*
X140735220Y-86645500D01*
X140674490Y-86650000D01*
X140646930Y-86634600D01*
X140623790Y-86613100D01*
X140609250Y-86554000D01*
X140623790Y-86525300D01*
X141028080Y-85968800D01*
X141432330Y-85412400D01*
X141455180Y-85389700D01*
X141515920Y-85385300D01*
X141543460Y-85400700D01*
G37*
G36*
X140621070Y-84656400D02*
G01*
X140646860Y-84674600D01*
X140667640Y-84698300D01*
X140675910Y-84758700D01*
X140658430Y-84785700D01*
X140198250Y-85296900D01*
X139738030Y-85808000D01*
X139712920Y-85828200D01*
X139652060Y-85826200D01*
X139626270Y-85808000D01*
X139605490Y-85784300D01*
X139597220Y-85724000D01*
X139614700Y-85696900D01*
X140535140Y-84674700D01*
X140535130Y-84674700D01*
X140560220Y-84654500D01*
X140621070Y-84656400D01*
G37*
G36*
X139807330Y-83838000D02*
G01*
X139831070Y-83858800D01*
X139849250Y-83884600D01*
X139851190Y-83945400D01*
X139831000Y-83970500D01*
X138808750Y-84891000D01*
X138781670Y-84908400D01*
X138721360Y-84900200D01*
X138697620Y-84879400D01*
X138679430Y-84853600D01*
X138677490Y-84792700D01*
X138697690Y-84767600D01*
X139208810Y-84307400D01*
X139719940Y-83847200D01*
X139747020Y-83829700D01*
X139807330Y-83838000D01*
G37*
G36*
X139083590Y-82939100D02*
G01*
X139105020Y-82962200D01*
X139120420Y-82989800D01*
X139115970Y-83050500D01*
X139093270Y-83073300D01*
X138536860Y-83477600D01*
X137980430Y-83881900D01*
X137951670Y-83896400D01*
X137892530Y-83881900D01*
X137871100Y-83858700D01*
X137855720Y-83831200D01*
X137860160Y-83770500D01*
X137882880Y-83747600D01*
X138439290Y-83343300D01*
X138995720Y-82939100D01*
X138995730Y-82939100D01*
X139024460Y-82924500D01*
X139083590Y-82939100D01*
G37*
G36*
X137936750Y-80939600D02*
G01*
X137952910Y-80966700D01*
X137962230Y-80996800D01*
X137945270Y-81055300D01*
X137918300Y-81072900D01*
X137289980Y-81352700D01*
X136661660Y-81632400D01*
X136630510Y-81640700D01*
X136575700Y-81614100D01*
X136559530Y-81587000D01*
X136550210Y-81556900D01*
X136567190Y-81498400D01*
X136594170Y-81480800D01*
X137222470Y-81201000D01*
X137850770Y-80921300D01*
X137850780Y-80921300D01*
X137881930Y-80913100D01*
X137936750Y-80939600D01*
G37*
G36*
X137526200Y-79861000D02*
G01*
X137539440Y-79889600D01*
X137545560Y-79920500D01*
X137522580Y-79976900D01*
X137493930Y-79991600D01*
X136839790Y-80204200D01*
X136185680Y-80416700D01*
X136153860Y-80421700D01*
X136102120Y-80389500D01*
X136088880Y-80360900D01*
X136082760Y-80330000D01*
X136105740Y-80273600D01*
X136134390Y-80258900D01*
X136788540Y-80046300D01*
X137442640Y-79833800D01*
X137474460Y-79828900D01*
X137526200Y-79861000D01*
G37*
G36*
X137230680Y-78745300D02*
G01*
X137240850Y-78775200D01*
X137243700Y-78806600D01*
X137214940Y-78860300D01*
X137184900Y-78871900D01*
X136512170Y-79014900D01*
X135839400Y-79157900D01*
X135807220Y-79159500D01*
X135759120Y-79122200D01*
X135748950Y-79092300D01*
X135746100Y-79060900D01*
X135774860Y-79007200D01*
X135804900Y-78995600D01*
X136477670Y-78852600D01*
X137150400Y-78709600D01*
X137182580Y-78708000D01*
X137230680Y-78745300D01*
G37*
G36*
X136977290Y-77561000D02*
G01*
X136977280Y-77561000D01*
X136977290Y-77561000D01*
G37*
G36*
X137009430Y-77562800D02*
G01*
X137053370Y-77604900D01*
X137060360Y-77635700D01*
X137059910Y-77667200D01*
X137025700Y-77717600D01*
X136994600Y-77726000D01*
X136310600Y-77798000D01*
X135626590Y-77869800D01*
X135594420Y-77868100D01*
X135550490Y-77825900D01*
X135543480Y-77795100D01*
X135543940Y-77763600D01*
X135578160Y-77713200D01*
X135609240Y-77704800D01*
X136293270Y-77632900D01*
X136977290Y-77561000D01*
X137009430Y-77562800D01*
G37*
G36*
X136310610Y-75169200D02*
G01*
X136994610Y-75241100D01*
X136994620Y-75241100D01*
X137025720Y-75249600D01*
X137059930Y-75299900D01*
X137060380Y-75331500D01*
X137053390Y-75362200D01*
X137009450Y-75404400D01*
X136977300Y-75406200D01*
X136293270Y-75334300D01*
X135609250Y-75262400D01*
X135578170Y-75253900D01*
X135543950Y-75203600D01*
X135543490Y-75172000D01*
X135550500Y-75141300D01*
X135594430Y-75099100D01*
X135626600Y-75097300D01*
X136310610Y-75169200D01*
G37*
G36*
X135839400Y-73809200D02*
G01*
X136512170Y-73952200D01*
X137184900Y-74095200D01*
X137214940Y-74106900D01*
X137243700Y-74160500D01*
X137240850Y-74192000D01*
X137230680Y-74221800D01*
X137182580Y-74259200D01*
X137150400Y-74257600D01*
X136477670Y-74114600D01*
X135804900Y-73971600D01*
X135774860Y-73959900D01*
X135746100Y-73906300D01*
X135748950Y-73874900D01*
X135759120Y-73845000D01*
X135807220Y-73807700D01*
X135839400Y-73809200D01*
G37*
G36*
X136185680Y-72550440D02*
G01*
X136839790Y-72762990D01*
X137493930Y-72975500D01*
X137522580Y-72990200D01*
X137545560Y-73046600D01*
X137539440Y-73077600D01*
X137526210Y-73106200D01*
X137474470Y-73138300D01*
X137442640Y-73133400D01*
X136788540Y-72920800D01*
X136134390Y-72708270D01*
X136105740Y-72693570D01*
X136082760Y-72637200D01*
X136088880Y-72606250D01*
X136102110Y-72577610D01*
X136153850Y-72545500D01*
X136185680Y-72550440D01*
G37*
G36*
X136661650Y-71334760D02*
G01*
X137289970Y-71614510D01*
X137918290Y-71894230D01*
X137918280Y-71894230D01*
X137945250Y-71911870D01*
X137962210Y-71970350D01*
X137952890Y-72000490D01*
X137936730Y-72027600D01*
X137881910Y-72054110D01*
X137850760Y-72045860D01*
X137222470Y-71766120D01*
X136594160Y-71486390D01*
X136567180Y-71468760D01*
X136550200Y-71410280D01*
X136559520Y-71380130D01*
X136575690Y-71353020D01*
X136630500Y-71326510D01*
X136661650Y-71334760D01*
G37*
G36*
X137980420Y-69085290D02*
G01*
X138536840Y-69489580D01*
X139093260Y-69893830D01*
X139093250Y-69893830D01*
X139115950Y-69916680D01*
X139120400Y-69977420D01*
X139105000Y-70004960D01*
X139083570Y-70028100D01*
X139024440Y-70042640D01*
X138995710Y-70028100D01*
X138439290Y-69623840D01*
X137882870Y-69219560D01*
X137860150Y-69196720D01*
X137855710Y-69135990D01*
X137871090Y-69108430D01*
X137892530Y-69085290D01*
X137951660Y-69070750D01*
X137980420Y-69085290D01*
G37*
G36*
X138808740Y-68076200D02*
G01*
X139830990Y-68996640D01*
X139830990Y-68996630D01*
X139851170Y-69021720D01*
X139849240Y-69082570D01*
X139831060Y-69108360D01*
X139807320Y-69129140D01*
X139747000Y-69137410D01*
X139719930Y-69119930D01*
X139208800Y-68659750D01*
X138697680Y-68199530D01*
X138677490Y-68174420D01*
X138679430Y-68113560D01*
X138697610Y-68087770D01*
X138721360Y-68066990D01*
X138781670Y-68058720D01*
X138808740Y-68076200D01*
G37*
G36*
X139738040Y-67159180D02*
G01*
X140198250Y-67670310D01*
X140658440Y-68181430D01*
X140658450Y-68181430D01*
X140675930Y-68208510D01*
X140667660Y-68268820D01*
X140646880Y-68292560D01*
X140621090Y-68310740D01*
X140560230Y-68312680D01*
X140535150Y-68292490D01*
X139614710Y-67270240D01*
X139597230Y-67243160D01*
X139605500Y-67182850D01*
X139626280Y-67159110D01*
X139652070Y-67140920D01*
X139712930Y-67138980D01*
X139738040Y-67159180D01*
G37*
G36*
X140735220Y-66321650D02*
G01*
X140758060Y-66344370D01*
X141162350Y-66900790D01*
X141566600Y-67457210D01*
X141566600Y-67457220D01*
X141581140Y-67485950D01*
X141566600Y-67545080D01*
X141543460Y-67566510D01*
X141515910Y-67581910D01*
X141455180Y-67577460D01*
X141432330Y-67554760D01*
X141028080Y-66998350D01*
X140623790Y-66441920D01*
X140609250Y-66413160D01*
X140623790Y-66354020D01*
X140646930Y-66332590D01*
X140674490Y-66317200D01*
X140735220Y-66321650D01*
G37*
G36*
X143007260Y-65028680D02*
G01*
X143024890Y-65055660D01*
X143304630Y-65683960D01*
X143584360Y-66312260D01*
X143584360Y-66312270D01*
X143592610Y-66343420D01*
X143566100Y-66398240D01*
X143538990Y-66414400D01*
X143508850Y-66423720D01*
X143450360Y-66406760D01*
X143432730Y-66379790D01*
X143153010Y-65751470D01*
X142873260Y-65123150D01*
X142865010Y-65092000D01*
X142891520Y-65037190D01*
X142918630Y-65021020D01*
X142948780Y-65011700D01*
X143007260Y-65028680D01*
G37*
G36*
X144232080Y-64567230D02*
G01*
X144246780Y-64595880D01*
X144459300Y-65250020D01*
X144671900Y-65904130D01*
X144676800Y-65935950D01*
X144644700Y-65987690D01*
X144616100Y-66000930D01*
X144585100Y-66007050D01*
X144528700Y-65984070D01*
X144514100Y-65955420D01*
X144301500Y-65301270D01*
X144088950Y-64647170D01*
X144084010Y-64615350D01*
X144116120Y-64563610D01*
X144144760Y-64550370D01*
X144175710Y-64544250D01*
X144232080Y-64567230D01*
G37*
G36*
X145498400Y-64236350D02*
G01*
X145510100Y-64266390D01*
X145653100Y-64939150D01*
X145796100Y-65611890D01*
X145797700Y-65644070D01*
X145760300Y-65692170D01*
X145730500Y-65702340D01*
X145699000Y-65705190D01*
X145645400Y-65676430D01*
X145633700Y-65646390D01*
X145490700Y-64973650D01*
X145347700Y-64300890D01*
X145346200Y-64268710D01*
X145383500Y-64220610D01*
X145413400Y-64210440D01*
X145444800Y-64207590D01*
X145498400Y-64236350D01*
G37*
G36*
X146742100Y-64005430D02*
G01*
X146792400Y-64039650D01*
X146800900Y-64070730D01*
X146872800Y-64754760D01*
X146944700Y-65438780D01*
X146942900Y-65470920D01*
X146900700Y-65514860D01*
X146870000Y-65521850D01*
X146838400Y-65521400D01*
X146788100Y-65487190D01*
X146779600Y-65456090D01*
X146707700Y-64772090D01*
X146635800Y-64088080D01*
X146637600Y-64055910D01*
X146679800Y-64011980D01*
X146710500Y-64004970D01*
X146742100Y-64005430D01*
G37*
G36*
X153302300Y-81255500D02*
G01*
X153359000Y-81285400D01*
X153381200Y-81382400D01*
X153342200Y-81491800D01*
X153264700Y-81673400D01*
X153187300Y-81855000D01*
X153067500Y-81855000D01*
X153139400Y-81686400D01*
X153211300Y-81517900D01*
X153240600Y-81438800D01*
X153238100Y-81391800D01*
X153219500Y-81359600D01*
X153168500Y-81353100D01*
X153116500Y-81361300D01*
X153060000Y-81402000D01*
X153007000Y-81454500D01*
X152972200Y-81521600D01*
X152901100Y-81688300D01*
X152830000Y-81855000D01*
X152710700Y-81855000D01*
X152858200Y-81509400D01*
X152884000Y-81437800D01*
X152860000Y-81359600D01*
X152810200Y-81353100D01*
X152756900Y-81361000D01*
X152702100Y-81400300D01*
X152650900Y-81452300D01*
X152614900Y-81522700D01*
X152544100Y-81688900D01*
X152473200Y-81855000D01*
X152353400Y-81855000D01*
X152478900Y-81560900D01*
X152604400Y-81266900D01*
X152724200Y-81266900D01*
X152704400Y-81313200D01*
X152684600Y-81359400D01*
X152687200Y-81359400D01*
X152740700Y-81310700D01*
X152852000Y-81257500D01*
X152909900Y-81253000D01*
X152964000Y-81257900D01*
X153019300Y-81316700D01*
X153020400Y-81370600D01*
X153077500Y-81316700D01*
X153196900Y-81258000D01*
X153259100Y-81253000D01*
X153302300Y-81255500D01*
G37*
G36*
X151721800Y-80890400D02*
G01*
X151806900Y-80936400D01*
X151845500Y-81060300D01*
X151812300Y-81163100D01*
X151743400Y-81290900D01*
X151479100Y-81536000D01*
X151287800Y-81674700D01*
X151236700Y-81710600D01*
X151185500Y-81746500D01*
X151184900Y-81748000D01*
X151184300Y-81749400D01*
X151587700Y-81749400D01*
X151543200Y-81855000D01*
X150968000Y-81855000D01*
X150984700Y-81815400D01*
X151001400Y-81775900D01*
X151070200Y-81727500D01*
X151139000Y-81679100D01*
X151362600Y-81518800D01*
X151626500Y-81284600D01*
X151684900Y-81179200D01*
X151709600Y-81107400D01*
X151688000Y-81024500D01*
X151631400Y-80994400D01*
X151585000Y-80991600D01*
X151459700Y-81014300D01*
X151359200Y-81073700D01*
X151358900Y-81028200D01*
X151358700Y-80982800D01*
X151425600Y-80942900D01*
X151576200Y-80891100D01*
X151654400Y-80886000D01*
X151721800Y-80890400D01*
G37*
G36*
X150759400Y-81855000D02*
G01*
X150643000Y-81855000D01*
X150993400Y-81022400D01*
X150990700Y-81022400D01*
X150796500Y-81111800D01*
X150814200Y-81013500D01*
X151057900Y-80902100D01*
X151160500Y-80902100D01*
X150759400Y-81855000D01*
G37*
G36*
X148219700Y-68743110D02*
G01*
X148528600Y-68843770D01*
X148682000Y-68932250D01*
X148761300Y-68991820D01*
X148820100Y-69071630D01*
X148870700Y-69153420D01*
X148951700Y-69327330D01*
X148966900Y-69422080D01*
X148974300Y-69580270D01*
X148942700Y-69732530D01*
X148910100Y-69843360D01*
X148820000Y-70056570D01*
X148733200Y-70142350D01*
X148705000Y-70185280D01*
X148708700Y-70233090D01*
X148727600Y-70259460D01*
X148787800Y-70274480D01*
X148821200Y-70262550D01*
X148864600Y-70231360D01*
X148908900Y-70206560D01*
X148966100Y-70195820D01*
X149017000Y-70210900D01*
X149040700Y-70232430D01*
X149030500Y-70287460D01*
X149015100Y-70314190D01*
X148949400Y-70409350D01*
X148769400Y-70493340D01*
X148654800Y-70484580D01*
X148575000Y-70479950D01*
X148493900Y-70484470D01*
X148383000Y-70488950D01*
X148272400Y-70488320D01*
X148237600Y-70475370D01*
X148214100Y-70443090D01*
X148215800Y-70412880D01*
X148239200Y-70385690D01*
X148350500Y-70302260D01*
X148503700Y-70082220D01*
X148557900Y-69962320D01*
X148624400Y-69790840D01*
X148656500Y-69521990D01*
X148627300Y-69340670D01*
X148590600Y-69250300D01*
X148533400Y-69157010D01*
X148455400Y-69076030D01*
X148379700Y-69006960D01*
X148197500Y-68920630D01*
X147996000Y-68896700D01*
X147795000Y-68935430D01*
X147702000Y-68980990D01*
X147622100Y-69031610D01*
X147497100Y-69161620D01*
X147452300Y-69235170D01*
X147417100Y-69311270D01*
X147387900Y-69487080D01*
X147392900Y-69572750D01*
X147413600Y-69716590D01*
X147508600Y-69991380D01*
X147582000Y-70118640D01*
X147653500Y-70207360D01*
X147740200Y-70285610D01*
X147782800Y-70316280D01*
X147825300Y-70346990D01*
X147848800Y-70371160D01*
X147872300Y-70429250D01*
X147856600Y-70459530D01*
X147814300Y-70492240D01*
X147757200Y-70501090D01*
X147634800Y-70499310D01*
X147512300Y-70493540D01*
X147448200Y-70495460D01*
X147384600Y-70504410D01*
X147328700Y-70509240D01*
X147220800Y-70484480D01*
X147128200Y-70424590D01*
X147062800Y-70336430D01*
X147045900Y-70283150D01*
X147045600Y-70235630D01*
X147056800Y-70185360D01*
X147111900Y-70189400D01*
X147163800Y-70201550D01*
X147201000Y-70227110D01*
X147236100Y-70259760D01*
X147263200Y-70276190D01*
X147317400Y-70276100D01*
X147340700Y-70253660D01*
X147354800Y-70227900D01*
X147334100Y-70184980D01*
X147315900Y-70163950D01*
X147209100Y-70018640D01*
X147084100Y-69695040D01*
X147078400Y-69512580D01*
X147084400Y-69423790D01*
X147127200Y-69254150D01*
X147167800Y-69177020D01*
X147248500Y-69063940D01*
X147353400Y-68970820D01*
X147501700Y-68862910D01*
X147857500Y-68745980D01*
X148078100Y-68735940D01*
X148078100Y-68735930D01*
X148219700Y-68743110D01*
G37*
G36*
X148219700Y-68743110D02*
G01*
X148528600Y-68843770D01*
X148682000Y-68932250D01*
X148761300Y-68991820D01*
X148820100Y-69071630D01*
X148870700Y-69153420D01*
X148951700Y-69327330D01*
X148966900Y-69422080D01*
X148974300Y-69580270D01*
X148942700Y-69732530D01*
X148910200Y-69843360D01*
X148820000Y-70056560D01*
X148733100Y-70142350D01*
X148705000Y-70185310D01*
X148708700Y-70233090D01*
X148727600Y-70259460D01*
X148787800Y-70274480D01*
X148821200Y-70262550D01*
X148864700Y-70231380D01*
X148908900Y-70206560D01*
X148966100Y-70195820D01*
X149017000Y-70210900D01*
X149040700Y-70232430D01*
X149030500Y-70287460D01*
X149015100Y-70314190D01*
X148949300Y-70409340D01*
X148769400Y-70493340D01*
X148654800Y-70484580D01*
X148575000Y-70479950D01*
X148493900Y-70484510D01*
X148383000Y-70488960D01*
X148272400Y-70488320D01*
X148237600Y-70475370D01*
X148214100Y-70443090D01*
X148215800Y-70412880D01*
X148239100Y-70385690D01*
X148350500Y-70302260D01*
X148503700Y-70082220D01*
X148557900Y-69962320D01*
X148624400Y-69790860D01*
X148656500Y-69522000D01*
X148627300Y-69340670D01*
X148590600Y-69250300D01*
X148533400Y-69157020D01*
X148455400Y-69076060D01*
X148379700Y-69006990D01*
X148197500Y-68920650D01*
X147996000Y-68896710D01*
X147795000Y-68935430D01*
X147702000Y-68980990D01*
X147622100Y-69031610D01*
X147497100Y-69161620D01*
X147452300Y-69235170D01*
X147417000Y-69311270D01*
X147387900Y-69487080D01*
X147392900Y-69572750D01*
X147413600Y-69716590D01*
X147508600Y-69991380D01*
X147582000Y-70118640D01*
X147653500Y-70207360D01*
X147740200Y-70285610D01*
X147782800Y-70316280D01*
X147825300Y-70346990D01*
X147848800Y-70371160D01*
X147872300Y-70429260D01*
X147856600Y-70459560D01*
X147814300Y-70492220D01*
X147757200Y-70501080D01*
X147634800Y-70499300D01*
X147512300Y-70493530D01*
X147448200Y-70495460D01*
X147384600Y-70504400D01*
X147328700Y-70509230D01*
X147220800Y-70484470D01*
X147128200Y-70424580D01*
X147062800Y-70336430D01*
X147045800Y-70283140D01*
X147045600Y-70235610D01*
X147056800Y-70185380D01*
X147111900Y-70189390D01*
X147163800Y-70201540D01*
X147201000Y-70227100D01*
X147236100Y-70259750D01*
X147263200Y-70276180D01*
X147317400Y-70276090D01*
X147340600Y-70253650D01*
X147354700Y-70227900D01*
X147334100Y-70184980D01*
X147315900Y-70163940D01*
X147209100Y-70018630D01*
X147084100Y-69695030D01*
X147078400Y-69512570D01*
X147084400Y-69423800D01*
X147127200Y-69254150D01*
X147167800Y-69177010D01*
X147248500Y-69063940D01*
X147353500Y-68970810D01*
X147501700Y-68862900D01*
X147857500Y-68745970D01*
X148078100Y-68735930D01*
X148219700Y-68743110D01*
G37*
G36*
X148869200Y-89442000D02*
G01*
X148901100Y-89655500D01*
X148860800Y-89658200D01*
X148820400Y-89660700D01*
X148807700Y-89566900D01*
X148795300Y-89473200D01*
X148795200Y-89473200D01*
X148783100Y-89377300D01*
X148777200Y-89288200D01*
X148775700Y-89288200D01*
X148774300Y-89288200D01*
X148743400Y-89366900D01*
X148702400Y-89455800D01*
X148650900Y-89562800D01*
X148598600Y-89669400D01*
X148567400Y-89670800D01*
X148536200Y-89671900D01*
X148481300Y-89571000D01*
X148427500Y-89469700D01*
X148382900Y-89382000D01*
X148351300Y-89304200D01*
X148350300Y-89304200D01*
X148349200Y-89304300D01*
X148346900Y-89393800D01*
X148340800Y-89494300D01*
X148327200Y-89679200D01*
X148287800Y-89679800D01*
X148248500Y-89680200D01*
X148267700Y-89464600D01*
X148286600Y-89249000D01*
X148337800Y-89248300D01*
X148389000Y-89247200D01*
X148444600Y-89350200D01*
X148501200Y-89452900D01*
X148540500Y-89528300D01*
X148569700Y-89595400D01*
X148572200Y-89595400D01*
X148597500Y-89527300D01*
X148634100Y-89447900D01*
X148685900Y-89341200D01*
X148736900Y-89234200D01*
X148787900Y-89231400D01*
X148838800Y-89228300D01*
X148869200Y-89442000D01*
G37*
G36*
X147877500Y-89245000D02*
G01*
X147928300Y-89262000D01*
X147917000Y-89284600D01*
X147905700Y-89307200D01*
X147864500Y-89292400D01*
X147786700Y-89283700D01*
X147729200Y-89286100D01*
X147671600Y-89320800D01*
X147666900Y-89343600D01*
X147671100Y-89371300D01*
X147731700Y-89412200D01*
X147790900Y-89431200D01*
X147864200Y-89455300D01*
X147944700Y-89517500D01*
X147951300Y-89561900D01*
X147941900Y-89610300D01*
X147829900Y-89675900D01*
X147726000Y-89679600D01*
X147630300Y-89669800D01*
X147562400Y-89645300D01*
X147573600Y-89622400D01*
X147584700Y-89599500D01*
X147584700Y-89599600D01*
X147648100Y-89624200D01*
X147732200Y-89633800D01*
X147791400Y-89632100D01*
X147860500Y-89595100D01*
X147867000Y-89564600D01*
X147863200Y-89536200D01*
X147806000Y-89493800D01*
X147748300Y-89475200D01*
X147676100Y-89452500D01*
X147591100Y-89389100D01*
X147584400Y-89346300D01*
X147596200Y-89298600D01*
X147704300Y-89240800D01*
X147790400Y-89237500D01*
X147877500Y-89245000D01*
G37*
G36*
X147332900Y-89213700D02*
G01*
X147420500Y-89224900D01*
X147470600Y-89243900D01*
X147458500Y-89266100D01*
X147446500Y-89288100D01*
X147405600Y-89271400D01*
X147328200Y-89259800D01*
X147270200Y-89259700D01*
X147211300Y-89292100D01*
X147205900Y-89314700D01*
X147209500Y-89342600D01*
X147269000Y-89386000D01*
X147327300Y-89407300D01*
X147400400Y-89434500D01*
X147479300Y-89499900D01*
X147484600Y-89544500D01*
X147473700Y-89592500D01*
X147359500Y-89653300D01*
X147255200Y-89653000D01*
X147159500Y-89639300D01*
X147092200Y-89611700D01*
X147104100Y-89589400D01*
X147115900Y-89567100D01*
X147178800Y-89594400D01*
X147262800Y-89607500D01*
X147322200Y-89608100D01*
X147392700Y-89574000D01*
X147400000Y-89543700D01*
X147397000Y-89515200D01*
X147341100Y-89470500D01*
X147284100Y-89449700D01*
X147212200Y-89423800D01*
X147128800Y-89357100D01*
X147123500Y-89314100D01*
X147136500Y-89266900D01*
X147246500Y-89213400D01*
X147332900Y-89213700D01*
G37*
G36*
X146966800Y-89188000D02*
G01*
X147007300Y-89192200D01*
X146992400Y-89406900D01*
X146978100Y-89621700D01*
X146936500Y-89617300D01*
X146894900Y-89612800D01*
X146910200Y-89398200D01*
X146926300Y-89183600D01*
X146966800Y-89188000D01*
G37*
G36*
X146125800Y-89067300D02*
G01*
X146168400Y-89074900D01*
X146192300Y-89189400D01*
X146217000Y-89304000D01*
X146235100Y-89388600D01*
X146247400Y-89459400D01*
X146248300Y-89459600D01*
X146249300Y-89459700D01*
X146277500Y-89395500D01*
X146318200Y-89320400D01*
X146372500Y-89219300D01*
X146426300Y-89117900D01*
X146468600Y-89124300D01*
X146511000Y-89130500D01*
X146538100Y-89244700D01*
X146566000Y-89359000D01*
X146585200Y-89438700D01*
X146597000Y-89511900D01*
X146598900Y-89512200D01*
X146627600Y-89444100D01*
X146663400Y-89370800D01*
X146714800Y-89268000D01*
X146765600Y-89164900D01*
X146807000Y-89170000D01*
X146848500Y-89174900D01*
X146741700Y-89378700D01*
X146632300Y-89581300D01*
X146588800Y-89575500D01*
X146545300Y-89569500D01*
X146515200Y-89452300D01*
X146486100Y-89335100D01*
X146467600Y-89255700D01*
X146459300Y-89189300D01*
X146458400Y-89189200D01*
X146457500Y-89189100D01*
X146432500Y-89250100D01*
X146393700Y-89321200D01*
X146336400Y-89425300D01*
X146278400Y-89529100D01*
X146234900Y-89521900D01*
X146191400Y-89514500D01*
X146135500Y-89287100D01*
X146083100Y-89059400D01*
X146125800Y-89067300D01*
G37*
G36*
X145866600Y-89010100D02*
G01*
X145953300Y-89032700D01*
X146002300Y-89058500D01*
X145988100Y-89078900D01*
X145973900Y-89099200D01*
X145934000Y-89077200D01*
X145857100Y-89055100D01*
X145799100Y-89047400D01*
X145736800Y-89071800D01*
X145729200Y-89093400D01*
X145730000Y-89121700D01*
X145785800Y-89172700D01*
X145842600Y-89201700D01*
X145913600Y-89238600D01*
X145986800Y-89314100D01*
X145988000Y-89359200D01*
X145972500Y-89405500D01*
X145851700Y-89450800D01*
X145746500Y-89436300D01*
X145651400Y-89410000D01*
X145586600Y-89373800D01*
X145600500Y-89353000D01*
X145614400Y-89332300D01*
X145675400Y-89367900D01*
X145758900Y-89392100D01*
X145818500Y-89400800D01*
X145892600Y-89376400D01*
X145902900Y-89347300D01*
X145902500Y-89318500D01*
X145850200Y-89266400D01*
X145794800Y-89238000D01*
X145724800Y-89202800D01*
X145647200Y-89125200D01*
X145645900Y-89081700D01*
X145663700Y-89036500D01*
X145779700Y-88998300D01*
X145866600Y-89010100D01*
G37*
G36*
X160491400Y-75068900D02*
G01*
X157132400Y-75068900D01*
X156920900Y-74857400D01*
X160752000Y-74857400D01*
X160491400Y-75068900D01*
G37*
G36*
X157132400Y-77794900D02*
G01*
X160540500Y-77794900D01*
X160540500Y-75068900D01*
X160491400Y-75068900D01*
X160752000Y-74857400D01*
X160752000Y-78006400D01*
X156920900Y-78006400D01*
X156920900Y-74857400D01*
X157132400Y-75068900D01*
X157132400Y-77794900D01*
G37*
G36*
X143746760Y-80858400D02*
G01*
X143858210Y-80895800D01*
X143973090Y-81035800D01*
X143998330Y-81097600D01*
X144006120Y-81116700D01*
X144012260Y-81129200D01*
X143922120Y-81180300D01*
X143912280Y-81160900D01*
X143902430Y-81136700D01*
X143881220Y-81084800D01*
X143801650Y-80985000D01*
X143726710Y-80960000D01*
X143726690Y-80960000D01*
X143556390Y-80938200D01*
X143340870Y-80982900D01*
X143231550Y-81049400D01*
X143192760Y-81094800D01*
X143170300Y-81137700D01*
X143170170Y-81254200D01*
X143192510Y-81306600D01*
X143227260Y-81352700D01*
X143336820Y-81404900D01*
X143399170Y-81422200D01*
X143436290Y-81431100D01*
X143477380Y-81438000D01*
X143565080Y-81452800D01*
X143641490Y-81490000D01*
X143699200Y-81535700D01*
X143787450Y-81680400D01*
X143792130Y-81770800D01*
X143772210Y-81865400D01*
X143649530Y-82011600D01*
X143574150Y-82057600D01*
X143469490Y-82105700D01*
X143289520Y-82140300D01*
X143224550Y-82143400D01*
X143223080Y-82143400D01*
X143221590Y-82143500D01*
X143181160Y-82145500D01*
X143134700Y-82146200D01*
X143049100Y-82144100D01*
X142870960Y-82093600D01*
X142795750Y-82028800D01*
X142727260Y-81932100D01*
X142701770Y-81859700D01*
X142679160Y-81757500D01*
X142682760Y-81679600D01*
X142683410Y-81665400D01*
X142683680Y-81653200D01*
X142735470Y-81653500D01*
X142787260Y-81653800D01*
X142787000Y-81668000D01*
X142786240Y-81684400D01*
X142783200Y-81750400D01*
X142799470Y-81825200D01*
X142820250Y-81884200D01*
X142871680Y-81958300D01*
X142945620Y-82016200D01*
X143133080Y-82044100D01*
X143216590Y-82040000D01*
X143218110Y-82040000D01*
X143219590Y-82039900D01*
X143346590Y-82033800D01*
X143525240Y-81966300D01*
X143580430Y-81932900D01*
X143673890Y-81828100D01*
X143688860Y-81762900D01*
X143685560Y-81706900D01*
X143625080Y-81609000D01*
X143582570Y-81575200D01*
X143532020Y-81552300D01*
X143460230Y-81540200D01*
X143415760Y-81532700D01*
X143371470Y-81522100D01*
X143298520Y-81501800D01*
X143153870Y-81427800D01*
X143102090Y-81357100D01*
X143067560Y-81276800D01*
X143071490Y-81102100D01*
X143109390Y-81033400D01*
X143157600Y-80976400D01*
X143290180Y-80892300D01*
X143456590Y-80846600D01*
X143646230Y-80842300D01*
X143746760Y-80858400D01*
G37*
G36*
X152421800Y-80891600D02*
G01*
X152456200Y-80918300D01*
X152298900Y-80988000D01*
X152265000Y-80991500D01*
X152135800Y-80964700D01*
X152145300Y-80956000D01*
X152286200Y-80891500D01*
X152355500Y-80886000D01*
X152421800Y-80891600D01*
G37*
G36*
X152505100Y-80956100D02*
G01*
X152529100Y-81080100D01*
X152493400Y-81258400D01*
X152450500Y-81368300D01*
X152397700Y-81485300D01*
X152277700Y-81672300D01*
X152143800Y-81800100D01*
X152000100Y-81865600D01*
X151925600Y-81871200D01*
X151863700Y-81865700D01*
X151782600Y-81801900D01*
X151756800Y-81677300D01*
X151790500Y-81495300D01*
X151833700Y-81381500D01*
X151886300Y-81266100D01*
X152009100Y-81081900D01*
X152135800Y-80964700D01*
X152265000Y-80991500D01*
X152176900Y-81042000D01*
X152040200Y-81203800D01*
X151955000Y-81383100D01*
X151891500Y-81555400D01*
X151890500Y-81715800D01*
X151936000Y-81767000D01*
X151974500Y-81771400D01*
X152021200Y-81766600D01*
X152113600Y-81711900D01*
X152246500Y-81545500D01*
X152326000Y-81374100D01*
X152388600Y-81208500D01*
X152395600Y-81045900D01*
X152349000Y-80992000D01*
X152305900Y-80987200D01*
X152298900Y-80988000D01*
X152456200Y-80918300D01*
X152505100Y-80956100D01*
G37*
%TD*%
M02*
