%TF.GenerationSoftware,KiCad,Pcbnew,(5.1.9)-1*%
%TF.CreationDate,2022-12-31T23:17:31-05:00*%
%TF.ProjectId,seamaster-face,7365616d-6173-4746-9572-2d666163652e,rev?*%
%TF.SameCoordinates,Original*%
%TF.FileFunction,Legend,Bot*%
%TF.FilePolarity,Positive*%
%FSLAX46Y46*%
G04 Gerber Fmt 4.6, Leading zero omitted, Abs format (unit mm)*
G04 Created by KiCad (PCBNEW (5.1.9)-1) date 2022-12-31 23:17:31*
%MOMM*%
%LPD*%
G01*
G04 APERTURE LIST*
%ADD10C,0.125000*%
%ADD11C,0.100000*%
G04 APERTURE END LIST*
D10*
X152017704Y-74797433D02*
X151779609Y-74797433D01*
X152065323Y-74940290D02*
X151898657Y-74440290D01*
X151731990Y-74940290D01*
X151327228Y-74940290D02*
X151565323Y-74940290D01*
X151565323Y-74440290D01*
X150922466Y-74940290D02*
X151160561Y-74940290D01*
X151160561Y-74440290D01*
X150755800Y-74940290D02*
X150755800Y-74440290D01*
X150565323Y-74440290D01*
X150517704Y-74464100D01*
X150493895Y-74487909D01*
X150470085Y-74535528D01*
X150470085Y-74606957D01*
X150493895Y-74654576D01*
X150517704Y-74678385D01*
X150565323Y-74702195D01*
X150755800Y-74702195D01*
X149970085Y-74892671D02*
X149993895Y-74916480D01*
X150065323Y-74940290D01*
X150112942Y-74940290D01*
X150184371Y-74916480D01*
X150231990Y-74868861D01*
X150255800Y-74821242D01*
X150279609Y-74726004D01*
X150279609Y-74654576D01*
X150255800Y-74559338D01*
X150231990Y-74511719D01*
X150184371Y-74464100D01*
X150112942Y-74440290D01*
X150065323Y-74440290D01*
X149993895Y-74464100D01*
X149970085Y-74487909D01*
X149589133Y-74678385D02*
X149517704Y-74702195D01*
X149493895Y-74726004D01*
X149470085Y-74773623D01*
X149470085Y-74845052D01*
X149493895Y-74892671D01*
X149517704Y-74916480D01*
X149565323Y-74940290D01*
X149755800Y-74940290D01*
X149755800Y-74440290D01*
X149589133Y-74440290D01*
X149541514Y-74464100D01*
X149517704Y-74487909D01*
X149493895Y-74535528D01*
X149493895Y-74583147D01*
X149517704Y-74630766D01*
X149541514Y-74654576D01*
X149589133Y-74678385D01*
X149755800Y-74678385D01*
X149279609Y-74797433D02*
X149041514Y-74797433D01*
X149327228Y-74940290D02*
X149160561Y-74440290D01*
X148993895Y-74940290D01*
X148589133Y-74940290D02*
X148827228Y-74940290D01*
X148827228Y-74440290D01*
X148184371Y-74940290D02*
X148422466Y-74940290D01*
X148422466Y-74440290D01*
X148017704Y-74940290D02*
X148017704Y-74440290D01*
X147827228Y-74440290D01*
X147779609Y-74464100D01*
X147755800Y-74487909D01*
X147731990Y-74535528D01*
X147731990Y-74606957D01*
X147755800Y-74654576D01*
X147779609Y-74678385D01*
X147827228Y-74702195D01*
X148017704Y-74702195D01*
X147231990Y-74892671D02*
X147255800Y-74916480D01*
X147327228Y-74940290D01*
X147374847Y-74940290D01*
X147446276Y-74916480D01*
X147493895Y-74868861D01*
X147517704Y-74821242D01*
X147541514Y-74726004D01*
X147541514Y-74654576D01*
X147517704Y-74559338D01*
X147493895Y-74511719D01*
X147446276Y-74464100D01*
X147374847Y-74440290D01*
X147327228Y-74440290D01*
X147255800Y-74464100D01*
X147231990Y-74487909D01*
X146851038Y-74678385D02*
X146779609Y-74702195D01*
X146755800Y-74726004D01*
X146731990Y-74773623D01*
X146731990Y-74845052D01*
X146755800Y-74892671D01*
X146779609Y-74916480D01*
X146827228Y-74940290D01*
X147017704Y-74940290D01*
X147017704Y-74440290D01*
X146851038Y-74440290D01*
X146803419Y-74464100D01*
X146779609Y-74487909D01*
X146755800Y-74535528D01*
X146755800Y-74583147D01*
X146779609Y-74630766D01*
X146803419Y-74654576D01*
X146851038Y-74678385D01*
X147017704Y-74678385D01*
X146541514Y-74797433D02*
X146303419Y-74797433D01*
X146589133Y-74940290D02*
X146422466Y-74440290D01*
X146255800Y-74940290D01*
X145851038Y-74940290D02*
X146089133Y-74940290D01*
X146089133Y-74440290D01*
X145446276Y-74940290D02*
X145684371Y-74940290D01*
X145684371Y-74440290D01*
X145279609Y-74940290D02*
X145279609Y-74440290D01*
X145089133Y-74440290D01*
X145041514Y-74464100D01*
X145017704Y-74487909D01*
X144993895Y-74535528D01*
X144993895Y-74606957D01*
X145017704Y-74654576D01*
X145041514Y-74678385D01*
X145089133Y-74702195D01*
X145279609Y-74702195D01*
X144493895Y-74892671D02*
X144517704Y-74916480D01*
X144589133Y-74940290D01*
X144636752Y-74940290D01*
X144708180Y-74916480D01*
X144755800Y-74868861D01*
X144779609Y-74821242D01*
X144803419Y-74726004D01*
X144803419Y-74654576D01*
X144779609Y-74559338D01*
X144755800Y-74511719D01*
X144708180Y-74464100D01*
X144636752Y-74440290D01*
X144589133Y-74440290D01*
X144517704Y-74464100D01*
X144493895Y-74487909D01*
X144112942Y-74678385D02*
X144041514Y-74702195D01*
X144017704Y-74726004D01*
X143993895Y-74773623D01*
X143993895Y-74845052D01*
X144017704Y-74892671D01*
X144041514Y-74916480D01*
X144089133Y-74940290D01*
X144279609Y-74940290D01*
X144279609Y-74440290D01*
X144112942Y-74440290D01*
X144065323Y-74464100D01*
X144041514Y-74487909D01*
X144017704Y-74535528D01*
X144017704Y-74583147D01*
X144041514Y-74630766D01*
X144065323Y-74654576D01*
X144112942Y-74678385D01*
X144279609Y-74678385D01*
D11*
%TO.C,SeaMasterFace*%
G36*
X161690900Y-76532200D02*
G01*
X134353300Y-76532200D01*
X134353300Y-76432200D01*
X161690900Y-76432200D01*
X161690900Y-76532200D01*
G37*
G36*
X148072100Y-90152600D02*
G01*
X147972100Y-90152600D01*
X147972100Y-62814200D01*
X148072100Y-62814200D01*
X148072100Y-90152600D01*
G37*
%TD*%
M02*
